<?xml version="1.0" encoding="UTF-8" standalone="no"?> <!-- Created with Vectornator for iOS (http://vectornator.io/) --><!DOCTYPE svg PUBLIC "-//W3C//DTD SVG 1.1//EN" "http://www.w3.org/Graphics/SVG/1.1/DTD/svg11.dtd">
<svg style="fill-rule:evenodd;clip-rule:evenodd;stroke-linecap:round;stroke-linejoin:round;" xmlns:vectornator="http://vectornator.io" xmlns:xlink="http://www.w3.org/1999/xlink" xmlns="http://www.w3.org/2000/svg" xml:space="preserve" version="1.1" preserveAspectRatio="none" viewBox="0 0 1349.1 980">
<metadata>
<vectornator:setting key="RulersVisible" value="1"/>
<vectornator:setting key="Units" value="Pixels"/>
<vectornator:setting key="DynamicGuides" value="1"/>
<vectornator:setting key="GuidesVisible" value="1"/>
<vectornator:setting key="CMYKEnabledKey" value="0"/>
<vectornator:setting key="SnapToGuides" value="1"/>
<vectornator:setting key="GridSpacing" value="36"/>
</metadata>
<defs>
<linearGradient y1="-85.0276" id="LinearGradient" x1="699.57" y2="706.856" x2="699.57" gradientUnits="userSpaceOnUse" gradientTransform="matrix(-0.969478 0 0 1.15597 1356.44 0)">
<stop stop-color="#7f2113" offset="0"/>
<stop stop-color="#822515" offset="0.1798"/>
<stop stop-color="#8b301a" offset="0.3464"/>
<stop stop-color="#9a4322" offset="0.5078"/>
<stop stop-color="#af5d2e" offset="0.666"/>
<stop stop-color="#cb7f3d" offset="0.8219"/>
<stop stop-color="#eca850" offset="0.9741"/>
<stop stop-color="#f2b053" offset="1"/>
</linearGradient>
</defs>
<g id="Untitled" vectornator:layerName="Untitled">
<g opacity="1">
<path d="M0+0L1356.59+0L1356.59+979.04L0+979.04L0+0Z" fill-rule="evenodd" fill="#ffffff" opacity="1"/>
<path d="M0+979.568L1356.4+979.568L1356.4+0L0+0L0+979.568Z" fill-rule="evenodd" fill="url(#LinearGradient)" opacity="1"/>
<g opacity="1">
<g opacity="1">
<path d="M1140.11+157.79C1140.11+160.216+1138.46+162.182+1136.42+162.182C1134.39+162.182+1132.74+160.216+1132.74+157.79C1132.74+155.364+1134.39+153.397+1136.42+153.397C1138.46+153.397+1140.11+155.364+1140.11+157.79Z" fill-rule="evenodd" fill="#f7ada1" opacity="1"/>
<path d="M1014.07+219.056C1014.07+220.588+1013.03+221.83+1011.75+221.83C1010.46+221.83+1009.42+220.588+1009.42+219.056C1009.42+217.524+1010.46+216.282+1011.75+216.282C1013.03+216.282+1014.07+217.524+1014.07+219.056Z" fill-rule="evenodd" fill="#f7ada1" opacity="1"/>
<path d="M964.339+202.526C964.339+203.483+963.688+204.26+962.885+204.26C962.082+204.26+961.431+203.483+961.431+202.526C961.431+201.568+962.082+200.792+962.885+200.792C963.688+200.792+964.339+201.568+964.339+202.526Z" fill-rule="evenodd" fill="#f7ada1" opacity="1"/>
<path d="M876.117+214.548C876.117+217.038+874.424+219.056+872.336+219.056C870.248+219.056+868.555+217.038+868.555+214.548C868.555+212.058+870.248+210.04+872.336+210.04C874.424+210.04+876.117+212.058+876.117+214.548Z" fill-rule="evenodd" fill="#f7ada1" opacity="1"/>
<path d="M789.252+200.561C789.252+202.348+788.036+203.797+786.537+203.797C785.038+203.797+783.823+202.348+783.823+200.561C783.823+198.773+785.038+197.324+786.537+197.324C788.036+197.324+789.252+198.773+789.252+200.561Z" fill-rule="evenodd" fill="#f7ada1" opacity="1"/>
<path d="M750.279+210.849C750.279+211.296+749.975+211.658+749.6+211.658C749.225+211.658+748.921+211.296+748.921+210.849C748.921+210.402+749.225+210.04+749.6+210.04C749.975+210.04+750.279+210.402+750.279+210.849Z" fill-rule="evenodd" fill="#f7ada1" opacity="1"/>
<path d="M610.092+123.457C610.092+125.947+608.399+127.966+606.311+127.966C604.223+127.966+602.53+125.947+602.53+123.457C602.53+120.968+604.223+118.949+606.311+118.949C608.399+118.949+610.092+120.968+610.092+123.457Z" fill-rule="evenodd" fill="#f7ada1" opacity="1"/>
<path d="M582.947+138.947C582.947+140.097+582.166+141.028+581.202+141.028C580.238+141.028+579.457+140.097+579.457+138.947C579.457+137.798+580.238+136.867+581.202+136.867C582.166+136.867+582.947+137.798+582.947+138.947Z" fill-rule="evenodd" fill="#f7ada1" opacity="1"/>
<path d="M527.493+139.988C527.493+140.562+527.102+141.028+526.62+141.028C526.138+141.028+525.748+140.562+525.748+139.988C525.748+139.413+526.138+138.947+526.62+138.947C527.102+138.947+527.493+139.413+527.493+139.988Z" fill-rule="evenodd" fill="#f7ada1" opacity="1"/>
<path d="M332.919+334.075C332.919+335.033+332.268+335.809+331.464+335.809C330.661+335.809+330.01+335.033+330.01+334.075C330.01+333.117+330.661+332.341+331.464+332.341C332.268+332.341+332.919+333.117+332.919+334.075Z" fill-rule="evenodd" fill="#f7ada1" opacity="1"/>
<path d="M283.475+250.614C283.475+252.785+281.999+254.544+280.179+254.544C278.359+254.544+276.883+252.785+276.883+250.614C276.883+248.443+278.359+246.684+280.179+246.684C281.999+246.684+283.475+248.443+283.475+250.614Z" fill-rule="evenodd" fill="#f7ada1" opacity="1"/>
<path d="M302.865+186.111C302.865+187.835+301.693+189.232+300.247+189.232C298.802+189.232+297.63+187.835+297.63+186.111C297.63+184.387+298.802+182.99+300.247+182.99C301.693+182.99+302.865+184.387+302.865+186.111Z" fill-rule="evenodd" fill="#f7ada1" opacity="1"/>
<path d="M257.978+141.722C257.978+142.743+257.284+143.571+256.427+143.571C255.57+143.571+254.876+142.743+254.876+141.722C254.876+140.7+255.57+139.872+256.427+139.872C257.284+139.872+257.978+140.7+257.978+141.722Z" fill-rule="evenodd" fill="#f7ada1" opacity="1"/>
<path d="M61.174+284.368C61.174+285.262+60.5664+285.987+59.8168+285.987C59.0672+285.987+58.4595+285.262+58.4595+284.368C58.4595+283.475+59.0672+282.75+59.8168+282.75C60.5664+282.75+61.174+283.475+61.174+284.368Z" fill-rule="evenodd" fill="#f7ada1" opacity="1"/>
<path d="M71.2566+190.85C71.2566+191.808+70.6055+192.584+69.8024+192.584C68.9992+192.584+68.3482+191.808+68.3482+190.85C68.3482+189.893+68.9992+189.117+69.8024+189.117C70.6055+189.117+71.2566+189.893+71.2566+190.85Z" fill-rule="evenodd" fill="#f7ada1" opacity="1"/>
<path d="M119.634+316.967C119.634+317.988+118.939+318.816+118.082+318.816C117.226+318.816+116.531+317.988+116.531+316.967C116.531+315.945+117.226+315.117+118.082+315.117C118.939+315.117+119.634+315.945+119.634+316.967Z" fill-rule="evenodd" fill="#f7ada1" opacity="1"/>
<path d="M587.407+407.71C587.407+409.753+586.018+411.409+584.304+411.409C582.591+411.409+581.202+409.753+581.202+407.71C581.202+405.667+582.591+404.011+584.304+404.011C586.018+404.011+587.407+405.667+587.407+407.71Z" fill-rule="evenodd" fill="#f7ada1" opacity="1"/>
<path d="M660.893+317.66C660.893+319.001+659.981+320.088+658.857+320.088C657.733+320.088+656.821+319.001+656.821+317.66C656.821+316.32+657.733+315.233+658.857+315.233C659.981+315.233+660.893+316.32+660.893+317.66Z" fill-rule="evenodd" fill="#f7ada1" opacity="1"/>
<path d="M702.096+257.55C702.096+259.146+701.011+260.44+699.672+260.44C698.333+260.44+697.248+259.146+697.248+257.55C697.248+255.954+698.333+254.66+699.672+254.66C701.011+254.66+702.096+255.954+702.096+257.55Z" fill-rule="evenodd" fill="#f7ada1" opacity="1"/>
<path d="M898.803+444.932C898.803+447.039+897.37+448.747+895.603+448.747C893.836+448.747+892.404+447.039+892.404+444.932C892.404+442.826+893.836+441.118+895.603+441.118C897.37+441.118+898.803+442.826+898.803+444.932Z" fill-rule="evenodd" fill="#f7ada1" opacity="1"/>
<path d="M933.025+405.861C933.025+406.882+932.331+407.71+931.474+407.71C930.617+407.71+929.923+406.882+929.923+405.861C929.923+404.839+930.617+404.011+931.474+404.011C932.331+404.011+933.025+404.839+933.025+405.861Z" fill-rule="evenodd" fill="#f7ada1" opacity="1"/>
<path d="M1022.02+365.633C1022.02+366.144+1021.68+366.558+1021.25+366.558C1020.82+366.558+1020.47+366.144+1020.47+365.633C1020.47+365.122+1020.82+364.708+1021.25+364.708C1021.68+364.708+1022.02+365.122+1022.02+365.633Z" fill-rule="evenodd" fill="#f7ada1" opacity="1"/>
<path d="M1108.4+313.846C1108.4+314.612+1107.88+315.233+1107.24+315.233C1106.6+315.233+1106.08+314.612+1106.08+313.846C1106.08+313.079+1106.6+312.458+1107.24+312.458C1107.88+312.458+1108.4+313.079+1108.4+313.846Z" fill-rule="evenodd" fill="#f7ada1" opacity="1"/>
<path d="M1231.04+329.104C1231.04+329.551+1230.74+329.914+1230.36+329.914C1229.99+329.914+1229.69+329.551+1229.69+329.104C1229.69+328.658+1229.99+328.295+1230.36+328.295C1230.74+328.295+1231.04+328.658+1231.04+329.104Z" fill-rule="evenodd" fill="#f7ada1" opacity="1"/>
<path d="M1253.24+198.249C1253.24+200.611+1251.64+202.526+1249.66+202.526C1247.68+202.526+1246.07+200.611+1246.07+198.249C1246.07+195.887+1247.68+193.972+1249.66+193.972C1251.64+193.972+1253.24+195.887+1253.24+198.249Z" fill-rule="evenodd" fill="#f7ada1" opacity="1"/>
<path d="M1116.94+77.3343C1116.94+80.1434+1115.03+82.4206+1112.67+82.4206C1110.31+82.4206+1108.4+80.1434+1108.4+77.3343C1108.4+74.5252+1110.31+72.248+1112.67+72.2481C1115.03+72.248+1116.94+74.5252+1116.94+77.3343Z" fill-rule="evenodd" fill="#f7ada1" opacity="1"/>
<path d="M867.004+55.1397C867.004+56.0974+866.353+56.8737+865.55+56.8737C864.746+56.8737+864.095+56.0974+864.095+55.1397C864.095+54.1821+864.746+53.4058+865.55+53.4058C866.353+53.4058+867.004+54.1821+867.004+55.1397Z" fill-rule="evenodd" fill="#f7ada1" opacity="1"/>
<path d="" fill-rule="evenodd" fill="#f7ada1" opacity="1"/>
<path d="M673.011+185.764C673.011+187.296+671.97+188.539+670.685+188.539C669.4+188.539+668.358+187.296+668.358+185.764C668.358+184.232+669.4+182.99+670.685+182.99C671.97+182.99+673.011+184.232+673.011+185.764Z" fill-rule="evenodd" fill="#f7ada1" opacity="1"/>
<path d="M484.06+52.1342C484.06+53.7941+482.932+55.1397+481.54+55.1397C480.147+55.1397+479.019+53.7941+479.019+52.1342C479.019+50.4743+480.147+49.1287+481.54+49.1287C482.932+49.1287+484.06+50.4743+484.06+52.1342Z" fill-rule="evenodd" fill="#f7ada1" opacity="1"/>
</g>
<g opacity="1">
<path d="M1140.11+343.438C1140.11+345.864+1138.46+347.831+1136.42+347.831C1134.39+347.831+1132.74+345.864+1132.74+343.438C1132.74+341.012+1134.39+339.046+1136.42+339.046C1138.46+339.046+1140.11+341.012+1140.11+343.438Z" fill-rule="evenodd" fill="#f7ada1" opacity="1"/>
<path d="M1014.07+404.705C1014.07+406.237+1013.03+407.479+1011.75+407.479C1010.46+407.479+1009.42+406.237+1009.42+404.705C1009.42+403.173+1010.46+401.93+1011.75+401.93C1013.03+401.93+1014.07+403.173+1014.07+404.705Z" fill-rule="evenodd" fill="#f7ada1" opacity="1"/>
<path d="M964.339+388.174C964.339+389.132+963.688+389.908+962.885+389.908C962.082+389.908+961.431+389.132+961.431+388.174C961.431+387.217+962.082+386.44+962.885+386.44C963.688+386.44+964.339+387.217+964.339+388.174Z" fill-rule="evenodd" fill="#f7ada1" opacity="1"/>
<path d="M876.117+400.196C876.117+402.686+874.424+404.705+872.336+404.705C870.248+404.705+868.555+402.686+868.555+400.196C868.555+397.707+870.248+395.688+872.336+395.688C874.424+395.688+876.117+397.707+876.117+400.196Z" fill-rule="evenodd" fill="#f7ada1" opacity="1"/>
<path d="M789.252+386.209C789.252+387.997+788.036+389.446+786.537+389.446C785.038+389.446+783.823+387.997+783.823+386.209C783.823+384.422+785.038+382.973+786.537+382.973C788.036+382.973+789.252+384.422+789.252+386.209Z" fill-rule="evenodd" fill="#f7ada1" opacity="1"/>
<path d="M750.279+396.497C750.279+396.944+749.975+397.307+749.6+397.307C749.225+397.307+748.921+396.944+748.921+396.497C748.921+396.05+749.225+395.688+749.6+395.688C749.975+395.688+750.279+396.05+750.279+396.497Z" fill-rule="evenodd" fill="#f7ada1" opacity="1"/>
<path d="M610.092+309.106C610.092+311.596+608.399+313.614+606.311+313.614C604.223+313.614+602.53+311.596+602.53+309.106C602.53+306.616+604.223+304.598+606.311+304.598C608.399+304.598+610.092+306.616+610.092+309.106Z" fill-rule="evenodd" fill="#f7ada1" opacity="1"/>
<path d="M582.947+324.596C582.947+325.745+582.166+326.677+581.202+326.677C580.238+326.677+579.457+325.745+579.457+324.596C579.457+323.447+580.238+322.515+581.202+322.515C582.166+322.515+582.947+323.447+582.947+324.596Z" fill-rule="evenodd" fill="#f7ada1" opacity="1"/>
<path d="M527.493+325.636C527.493+326.211+527.102+326.677+526.62+326.677C526.138+326.677+525.748+326.211+525.748+325.636C525.748+325.062+526.138+324.596+526.62+324.596C527.102+324.596+527.493+325.062+527.493+325.636Z" fill-rule="evenodd" fill="#f7ada1" opacity="1"/>
<path d="M332.919+519.724C332.919+520.681+332.268+521.458+331.464+521.458C330.661+521.458+330.01+520.681+330.01+519.724C330.01+518.766+330.661+517.99+331.464+517.99C332.268+517.99+332.919+518.766+332.919+519.724Z" fill-rule="evenodd" fill="#f7ada1" opacity="1"/>
<path d="M283.475+436.263C283.475+438.433+281.999+440.193+280.179+440.193C278.359+440.193+276.883+438.433+276.883+436.263C276.883+434.092+278.359+432.332+280.179+432.332C281.999+432.332+283.475+434.092+283.475+436.263Z" fill-rule="evenodd" fill="#f7ada1" opacity="1"/>
<path d="M302.865+371.76C302.865+373.483+301.693+374.881+300.247+374.881C298.802+374.881+297.63+373.483+297.63+371.76C297.63+370.036+298.802+368.638+300.247+368.639C301.693+368.638+302.865+370.036+302.865+371.76Z" fill-rule="evenodd" fill="#f7ada1" opacity="1"/>
<path d="M257.978+327.37C257.978+328.392+257.284+329.22+256.427+329.22C255.57+329.22+254.876+328.392+254.876+327.37C254.876+326.349+255.57+325.521+256.427+325.521C257.284+325.521+257.978+326.349+257.978+327.37Z" fill-rule="evenodd" fill="#f7ada1" opacity="1"/>
<path d="M61.174+470.017C61.174+470.911+60.5664+471.635+59.8168+471.635C59.0672+471.635+58.4595+470.911+58.4595+470.017C58.4595+469.123+59.0672+468.399+59.8168+468.399C60.5664+468.399+61.174+469.123+61.174+470.017Z" fill-rule="evenodd" fill="#f7ada1" opacity="1"/>
<path d="M71.2566+376.499C71.2566+377.457+70.6055+378.233+69.8024+378.233C68.9992+378.233+68.3482+377.457+68.3482+376.499C68.3482+375.541+68.9992+374.765+69.8024+374.765C70.6055+374.765+71.2566+375.541+71.2566+376.499Z" fill-rule="evenodd" fill="#f7ada1" opacity="1"/>
<path d="M119.634+502.615C119.634+503.637+118.939+504.465+118.082+504.465C117.226+504.465+116.531+503.637+116.531+502.615C116.531+501.594+117.226+500.766+118.082+500.766C118.939+500.766+119.634+501.594+119.634+502.615Z" fill-rule="evenodd" fill="#f7ada1" opacity="1"/>
<path d="M587.407+593.359C587.407+595.402+586.018+597.058+584.304+597.058C582.591+597.058+581.202+595.402+581.202+593.359C581.202+591.316+582.591+589.66+584.304+589.66C586.018+589.66+587.407+591.316+587.407+593.359Z" fill-rule="evenodd" fill="#f7ada1" opacity="1"/>
<path d="M660.893+503.309C660.893+504.65+659.981+505.736+658.857+505.736C657.733+505.736+656.821+504.65+656.821+503.309C656.821+501.968+657.733+500.881+658.857+500.881C659.981+500.881+660.893+501.968+660.893+503.309Z" fill-rule="evenodd" fill="#f7ada1" opacity="1"/>
<path d="M702.096+443.199C702.096+444.795+701.011+446.088+699.672+446.088C698.333+446.088+697.248+444.795+697.248+443.199C697.248+441.602+698.333+440.309+699.672+440.309C701.011+440.309+702.096+441.602+702.096+443.199Z" fill-rule="evenodd" fill="#f7ada1" opacity="1"/>
<path d="M898.803+630.581C898.803+632.688+897.37+634.396+895.603+634.396C893.836+634.396+892.404+632.688+892.404+630.581C892.404+628.474+893.836+626.766+895.603+626.766C897.37+626.766+898.803+628.474+898.803+630.581Z" fill-rule="evenodd" fill="#f7ada1" opacity="1"/>
<path d="M933.025+591.509C933.025+592.531+932.331+593.359+931.474+593.359C930.617+593.359+929.923+592.531+929.923+591.509C929.923+590.488+930.617+589.66+931.474+589.66C932.331+589.66+933.025+590.488+933.025+591.509Z" fill-rule="evenodd" fill="#f7ada1" opacity="1"/>
<path d="M1022.02+551.282C1022.02+551.792+1021.68+552.206+1021.25+552.206C1020.82+552.206+1020.47+551.792+1020.47+551.282C1020.47+550.771+1020.82+550.357+1021.25+550.357C1021.68+550.357+1022.02+550.771+1022.02+551.282Z" fill-rule="evenodd" fill="#f7ada1" opacity="1"/>
<path d="M1108.4+499.494C1108.4+500.26+1107.88+500.881+1107.24+500.881C1106.6+500.881+1106.08+500.26+1106.08+499.494C1106.08+498.728+1106.6+498.107+1107.24+498.107C1107.88+498.107+1108.4+498.728+1108.4+499.494Z" fill-rule="evenodd" fill="#f7ada1" opacity="1"/>
<path d="M1231.04+514.753C1231.04+515.2+1230.74+515.562+1230.36+515.562C1229.99+515.562+1229.69+515.2+1229.69+514.753C1229.69+514.306+1229.99+513.944+1230.36+513.944C1230.74+513.944+1231.04+514.306+1231.04+514.753Z" fill-rule="evenodd" fill="#f7ada1" opacity="1"/>
<path d="M1253.24+383.897C1253.24+386.259+1251.64+388.174+1249.66+388.174C1247.68+388.174+1246.07+386.259+1246.07+383.897C1246.07+381.535+1247.68+379.62+1249.66+379.62C1251.64+379.62+1253.24+381.535+1253.24+383.897Z" fill-rule="evenodd" fill="#f7ada1" opacity="1"/>
<path d="M1116.94+262.983C1116.94+265.792+1115.03+268.069+1112.67+268.069C1110.31+268.069+1108.4+265.792+1108.4+262.983C1108.4+260.174+1110.31+257.897+1112.67+257.897C1115.03+257.897+1116.94+260.174+1116.94+262.983Z" fill-rule="evenodd" fill="#f7ada1" opacity="1"/>
<path d="M867.004+240.788C867.004+241.746+866.353+242.522+865.55+242.522C864.746+242.522+864.095+241.746+864.095+240.788C864.095+239.831+864.746+239.054+865.55+239.054C866.353+239.054+867.004+239.831+867.004+240.788Z" fill-rule="evenodd" fill="#f7ada1" opacity="1"/>
<path d="" fill-rule="evenodd" fill="#f7ada1" opacity="1"/>
<path d="M673.011+371.413C673.011+372.945+671.97+374.187+670.685+374.187C669.4+374.187+668.358+372.945+668.358+371.413C668.358+369.881+669.4+368.638+670.685+368.639C671.97+368.638+673.011+369.881+673.011+371.413Z" fill-rule="evenodd" fill="#f7ada1" opacity="1"/>
<path d="M484.06+237.783C484.06+239.443+482.932+240.788+481.54+240.788C480.147+240.788+479.019+239.443+479.019+237.783C479.019+236.123+480.147+234.777+481.54+234.777C482.932+234.777+484.06+236.123+484.06+237.783Z" fill-rule="evenodd" fill="#f7ada1" opacity="1"/>
</g>
<g opacity="1">
<path d="M1215.53+430.367C1215.53+432.793+1213.88+434.76+1211.85+434.76C1209.81+434.76+1208.16+432.793+1208.16+430.367C1208.16+427.941+1209.81+425.975+1211.85+425.975C1213.88+425.975+1215.53+427.941+1215.53+430.367Z" fill-rule="evenodd" fill="#f7ada1" opacity="1"/>
<path d="M1089.6+491.634C1089.6+493.166+1088.55+494.408+1087.27+494.408C1085.98+494.408+1084.94+493.166+1084.94+491.634C1084.94+490.101+1085.98+488.859+1087.27+488.859C1088.55+488.859+1089.6+490.101+1089.6+491.634Z" fill-rule="evenodd" fill="#f7ada1" opacity="1"/>
<path d="M1039.76+475.103C1039.76+476.061+1039.11+476.837+1038.31+476.837C1037.51+476.837+1036.86+476.061+1036.86+475.103C1036.86+474.146+1037.51+473.369+1038.31+473.369C1039.11+473.369+1039.76+474.146+1039.76+475.103Z" fill-rule="evenodd" fill="#f7ada1" opacity="1"/>
<path d="M951.542+487.125C951.542+489.615+949.849+491.634+947.761+491.634C945.673+491.634+943.98+489.615+943.98+487.125C943.98+484.635+945.673+482.617+947.761+482.617C949.849+482.617+951.542+484.635+951.542+487.125Z" fill-rule="evenodd" fill="#f7ada1" opacity="1"/>
<path d="M864.774+473.138C864.774+474.926+863.559+476.375+862.059+476.375C860.56+476.375+859.345+474.926+859.345+473.138C859.345+471.351+860.56+469.901+862.059+469.901C863.559+469.901+864.774+471.351+864.774+473.138Z" fill-rule="evenodd" fill="#f7ada1" opacity="1"/>
<path d="M825.704+483.426C825.704+483.873+825.4+484.235+825.025+484.235C824.651+484.235+824.347+483.873+824.347+483.426C824.347+482.979+824.651+482.617+825.025+482.617C825.4+482.617+825.704+482.979+825.704+483.426Z" fill-rule="evenodd" fill="#f7ada1" opacity="1"/>
<path d="M685.518+396.035C685.518+398.525+683.825+400.543+681.737+400.543C679.648+400.543+677.956+398.525+677.956+396.035C677.956+393.545+679.648+391.527+681.737+391.527C683.825+391.527+685.518+393.545+685.518+396.035Z" fill-rule="evenodd" fill="#f7ada1" opacity="1"/>
<path d="M658.372+411.525C658.372+412.674+657.591+413.606+656.627+413.606C655.663+413.606+654.882+412.674+654.882+411.525C654.882+410.376+655.663+409.444+656.627+409.444C657.591+409.444+658.372+410.376+658.372+411.525Z" fill-rule="evenodd" fill="#f7ada1" opacity="1"/>
<path d="M603.015+412.565C603.015+413.14+602.624+413.606+602.143+413.606C601.661+413.606+601.27+413.14+601.27+412.565C601.27+411.991+601.661+411.525+602.143+411.525C602.624+411.525+603.015+411.991+603.015+412.565Z" fill-rule="evenodd" fill="#f7ada1" opacity="1"/>
<path d="M408.344+606.653C408.344+607.61+407.693+608.386+406.89+608.386C406.087+608.386+405.436+607.61+405.436+606.653C405.436+605.695+406.087+604.919+406.89+604.919C407.693+604.919+408.344+605.695+408.344+606.653Z" fill-rule="evenodd" fill="#f7ada1" opacity="1"/>
<path d="M358.901+523.192C358.901+525.362+357.425+527.122+355.604+527.122C353.784+527.122+352.308+525.362+352.308+523.192C352.308+521.021+353.784+519.261+355.604+519.261C357.425+519.261+358.901+521.021+358.901+523.192Z" fill-rule="evenodd" fill="#f7ada1" opacity="1"/>
<path d="M378.387+458.688C378.387+460.412+377.215+461.81+375.77+461.81C374.324+461.81+373.152+460.412+373.152+458.688C373.152+456.965+374.324+455.567+375.77+455.567C377.215+455.567+378.387+456.965+378.387+458.688Z" fill-rule="evenodd" fill="#f7ada1" opacity="1"/>
<path d="M333.5+414.299C333.5+415.321+332.806+416.149+331.949+416.149C331.092+416.149+330.398+415.321+330.398+414.299C330.398+413.278+331.092+412.45+331.949+412.45C332.806+412.45+333.5+413.278+333.5+414.299Z" fill-rule="evenodd" fill="#f7ada1" opacity="1"/>
<path d="M136.599+556.946C136.599+557.84+135.992+558.564+135.242+558.564C134.493+558.564+133.885+557.84+133.885+556.946C133.885+556.052+134.493+555.327+135.242+555.327C135.992+555.327+136.599+556.052+136.599+556.946Z" fill-rule="evenodd" fill="#f7ada1" opacity="1"/>
<path d="M146.779+463.428C146.779+464.386+146.128+465.162+145.325+465.162C144.522+465.162+143.87+464.386+143.87+463.428C143.87+462.47+144.522+461.694+145.325+461.694C146.128+461.694+146.779+462.47+146.779+463.428Z" fill-rule="evenodd" fill="#f7ada1" opacity="1"/>
<path d="M195.059+589.544C195.059+590.566+194.364+591.394+193.508+591.394C192.651+591.394+191.957+590.566+191.957+589.544C191.957+588.523+192.651+587.695+193.508+587.695C194.364+587.695+195.059+588.523+195.059+589.544Z" fill-rule="evenodd" fill="#f7ada1" opacity="1"/>
<path d="M662.832+680.288C662.832+682.331+661.443+683.987+659.73+683.987C658.016+683.987+656.627+682.331+656.627+680.288C656.627+678.245+658.016+676.589+659.73+676.589C661.443+676.589+662.832+678.245+662.832+680.288Z" fill-rule="evenodd" fill="#f7ada1" opacity="1"/>
<path d="M736.415+590.238C736.415+591.578+735.504+592.665+734.379+592.665C733.255+592.665+732.343+591.578+732.343+590.238C732.343+588.897+733.255+587.81+734.379+587.81C735.504+587.81+736.415+588.897+736.415+590.238Z" fill-rule="evenodd" fill="#f7ada1" opacity="1"/>
<path d="M777.618+530.127C777.618+531.723+776.533+533.017+775.194+533.017C773.856+533.017+772.771+531.723+772.771+530.127C772.771+528.531+773.856+527.237+775.194+527.237C776.533+527.237+777.618+528.531+777.618+530.127Z" fill-rule="evenodd" fill="#f7ada1" opacity="1"/>
<path d="M974.228+717.51C974.228+719.617+972.796+721.325+971.029+721.325C969.262+721.325+967.829+719.617+967.829+717.51C967.829+715.403+969.262+713.695+971.029+713.695C972.796+713.695+974.228+715.403+974.228+717.51Z" fill-rule="evenodd" fill="#f7ada1" opacity="1"/>
<path d="M1008.55+678.438C1008.55+679.46+1007.85+680.288+1007+680.288C1006.14+680.288+1005.45+679.46+1005.45+678.438C1005.45+677.417+1006.14+676.589+1007+676.589C1007.85+676.589+1008.55+677.417+1008.55+678.438Z" fill-rule="evenodd" fill="#f7ada1" opacity="1"/>
<path d="M1097.45+638.21C1097.45+638.721+1097.1+639.135+1096.67+639.135C1096.24+639.135+1095.9+638.721+1095.9+638.21C1095.9+637.7+1096.24+637.286+1096.67+637.286C1097.1+637.286+1097.45+637.7+1097.45+638.21Z" fill-rule="evenodd" fill="#f7ada1" opacity="1"/>
<path d="M1183.83+586.423C1183.83+587.189+1183.31+587.81+1182.67+587.81C1182.02+587.81+1181.5+587.189+1181.5+586.423C1181.5+585.657+1182.02+585.036+1182.67+585.036C1183.31+585.036+1183.83+585.657+1183.83+586.423Z" fill-rule="evenodd" fill="#f7ada1" opacity="1"/>
<path d="M1306.47+601.682C1306.47+602.129+1306.16+602.491+1305.79+602.491C1305.41+602.491+1305.11+602.129+1305.11+601.682C1305.11+601.235+1305.41+600.873+1305.79+600.873C1306.16+600.873+1306.47+601.235+1306.47+601.682Z" fill-rule="evenodd" fill="#f7ada1" opacity="1"/>
<path d="M1328.67+470.826C1328.67+473.188+1327.06+475.103+1325.08+475.103C1323.1+475.103+1321.5+473.188+1321.5+470.826C1321.5+468.464+1323.1+466.549+1325.08+466.549C1327.06+466.549+1328.67+468.464+1328.67+470.826Z" fill-rule="evenodd" fill="#f7ada1" opacity="1"/>
<path d="M1192.36+349.912C1192.36+352.721+1190.45+354.998+1188.09+354.998C1185.74+354.998+1183.83+352.721+1183.83+349.912C1183.83+347.103+1185.74+344.826+1188.09+344.826C1190.45+344.826+1192.36+347.103+1192.36+349.912Z" fill-rule="evenodd" fill="#f7ada1" opacity="1"/>
<path d="M942.526+327.717C942.526+328.675+941.875+329.451+941.072+329.451C940.269+329.451+939.618+328.675+939.618+327.717C939.618+326.76+940.269+325.983+941.072+325.983C941.875+325.983+942.526+326.76+942.526+327.717Z" fill-rule="evenodd" fill="#f7ada1" opacity="1"/>
<path d="" fill-rule="evenodd" fill="#f7ada1" opacity="1"/>
<path d="M748.534+458.342C748.534+459.874+747.492+461.116+746.207+461.116C744.922+461.116+743.88+459.874+743.88+458.342C743.88+456.809+744.922+455.567+746.207+455.567C747.492+455.567+748.534+456.809+748.534+458.342Z" fill-rule="evenodd" fill="#f7ada1" opacity="1"/>
<path d="M559.582+324.712C559.582+326.372+558.454+327.717+557.062+327.717C555.67+327.717+554.541+326.372+554.541+324.712C554.541+323.052+555.67+321.706+557.062+321.706C558.454+321.706+559.582+323.052+559.582+324.712Z" fill-rule="evenodd" fill="#f7ada1" opacity="1"/>
</g>
</g>
<path d="M1356.4+0L0+0L0+101.378C0+101.378+112.072+9.94133+209.019+101.378C305.967+192.816+427.249+272.924+562.879+123.804C698.509-25.3157+676.889+346.213+851.104+248.88C1025.32+151.548+1356.4+279.86+1356.4+279.86C1356.4+279.86+1356.4+0+1356.4+0Z" fill-rule="evenodd" fill="#ef9c8b" opacity="0.07"/>
<path d="M1356.4+356.812C1356.4+356.812+1330.32+430.158+1157.36+386.395C984.408+342.632+932.734+192.165+829.291+405.777C566.563+948.58+578.778+197.98+464.768+314.885C119.149+669.273+0+354.364+0+354.364L0+891.658L1356.4+980L1356.4+356.812Z" fill-rule="evenodd" fill="#ef9c8b" opacity="0.07"/>
<path d="M0+440.681C0+440.681+26.0492+514.64+198.806+470.511C371.564+426.382+338.058+247.089+518.756+394.083C699.454+541.077+746.129+327.941+890.61+398.506C1035.09+469.071+1354.85+438.212+1354.85+438.212L1354.85+980L0+980L0+440.681Z" fill-rule="evenodd" fill="#ef9c8b" opacity="0.07"/>
<path d="M748.534+552.784C995.072+471.635+1151.84+633.933+1357.95+562.61L1357.95+639.482C1357.95+639.482+1229.88+629.425+981.693+617.865C733.507+606.306+806.993+645.146+511.399+678.669C215.806+712.192+0+692.657+0+692.657L0+603.185C39.6516+630.466+501.899+633.933+748.534+552.784Z" fill-rule="evenodd" fill="#ef9c8b" opacity="0.07"/>
<path d="M609.414+424.703C362.875+343.554+206.111+505.852+0+434.529L0+511.401C0+511.401+128.068+501.344+376.254+489.784C624.441+478.224+550.954+517.065+846.548+550.588C1142.14+584.111+1357.85+564.575+1357.85+564.575L1357.85+475.103C1318.2+502.384+855.952+505.852+609.414+424.703Z" fill-rule="evenodd" fill="#ef9c8b" opacity="0.07"/>
</g>
</g>
</svg>
