<svg xmlns="http://www.w3.org/2000/svg" xmlns:xlink="http://www.w3.org/1999/xlink" viewBox="0 0 128.71 124.48"><defs><style>.cls-1{isolation:isolate;}.cls-2{opacity:0.71;}.cls-3{fill:url(#_ÂÁ_Ï_ÌÌ_È_ËÂÌÚ_245);}.cls-4{fill:#974d8b;}.cls-4,.cls-6{opacity:0.1;mix-blend-mode:multiply;}.cls-10,.cls-5{fill:#f1f1a8;}.cls-5,.cls-9{opacity:0.51;}.cls-5,.cls-7,.cls-9{mix-blend-mode:soft-light;}.cls-6{fill:#690058;}.cls-8{fill:#e9e9a8;}</style><radialGradient id="_ÂÁ_Ï_ÌÌ_È_ËÂÌÚ_245" cx="51.24" cy="120.08" r="121.62" gradientUnits="userSpaceOnUse"><stop offset="0.59" stop-color="#de595b"/><stop offset="1" stop-color="#fe835c"/></radialGradient></defs><g class="cls-1"><g id="Laag_1" data-name="Laag 1"><g class="cls-2"><path class="cls-3" d="M124.47,63.93a62.57,62.57,0,0,1-7.33,27.61c-.18.35-.37.7-.57,1a61.57,61.57,0,0,1-15.36,18.18,60.6,60.6,0,0,1-5.9,4.19,62.1,62.1,0,0,1-13.92,6.49h0c-.35.12-.68.23-1,.33A62.3,62.3,0,0,1,.22,67.4c0-.38-.06-.77-.09-1.15A62.05,62.05,0,0,1,4,40.23c.3-.78.62-1.56.94-2.34a63.07,63.07,0,0,1,6.25-11.3A58.77,58.77,0,0,1,15,21.76c.21-.26.43-.52.66-.77A61.53,61.53,0,0,1,28.85,9.74c.35-.23.69-.44,1-.64.95-.59,1.92-1.14,2.9-1.67.31-.16.61-.33.92-.48a62.22,62.22,0,0,1,75.88,14.91c.35.4.69.81,1,1.22a61.51,61.51,0,0,1,4.64,6.54c.26.43.52.86.77,1.3a62.24,62.24,0,0,1,6.06,14.2c.1.34.19.68.28,1a61.91,61.91,0,0,1,2.06,13.16C124.49,60.83,124.51,62.37,124.47,63.93Z"/><path class="cls-4" d="M123.07,75.38s-28.59,2.21-34.46-8.19-11.82-13-21.15-11.92-21.07,8.6-32.4,5.57S2.19,45.94,2.19,45.94C.34,51.67,0,62.38,0,62.38s5.05,17.94,19.25,19,46.18,6,67.19,12.22S113.21,98,113.21,98A58.83,58.83,0,0,0,123.07,75.38ZM20.8,75.93c-1.48-3.67,8-4.11,9.82-1.45S23.92,83.71,20.8,75.93Zm40-16.76c8.84-3.6,24.39,2.86,22.91,8.66S54,62,60.82,59.17ZM78.63,88.89c-.25-5.16,6-1.82,7.5.88S78.83,93.06,78.63,88.89Zm27.48-.12a2,2,0,1,1,4.06.1C110.1,91.88,106,90.19,106.11,88.77Z"/><path class="cls-5" d="M124.47,63.93S104,51.08,87.75,47.79s-34.15,6.9-54.89,3.33C22.11,49.27,12.12,43.26,5,37.89a63.07,63.07,0,0,1,6.25-11.3c3.79,3.79,14.25,13.66,24,17.22,12.22,4.44,23.48-.39,44.06.8,17.62,1,39.25,11.65,45.08,14.68C124.49,60.83,124.51,62.37,124.47,63.93Z"/><path class="cls-5" d="M25.05,95.09c-2.36,1.64-8.16-.14-7.67-1.29C18.34,91.63,27.41,93.45,25.05,95.09Zm4.49-3.38c.87-1.27,6.14-.34,5.84.48S28.74,92.86,29.54,91.71Zm59,16.62c1.75-2,11.1,1.78,10.61,4S86.81,110.29,88.55,108.33Zm-43.33-15C21.76,88.73,8.75,84.3,3.31,82.18a61.9,61.9,0,0,0,8.87,17c10,.16,19.63-8.67,46.42-.4a178.64,178.64,0,0,1,36.71,16.17,60.5,60.5,0,0,0,5.9-4.18C91.36,106.64,69.3,98.12,45.22,93.36Z"/><path class="cls-6" d="M33.27,31.65c-.47,2.26,8.58,6.45,10.32,3.9S34.25,26.94,33.27,31.65Z"/><path class="cls-6" d="M36.36,39.05c.38,1.8,2.47,1.83,2.72,1S36,37.26,36.36,39.05Z"/><path class="cls-6" d="M88.53,61.63c2.52-2.55,3.68-1.1,4.26.23S87.75,62.43,88.53,61.63Z"/><path class="cls-6" d="M89.53,40.69c2.51-2.55,3.67-1.1,4.25.23S88.74,41.49,89.53,40.69Z"/><path class="cls-6" d="M55.14,108c2.51-2.56,3.67-1.11,4.25.22S54.35,108.81,55.14,108Z"/><path class="cls-6" d="M100.54,70c.3,1.3,2.55,1.54,2.41.07S100,67.85,100.54,70Z"/><path class="cls-6" d="M53.76,16.77c.29,1.29,2.55,1.53,2.41.06S53.25,14.57,53.76,16.77Z"/><path class="cls-5" d="M97.26,101.28c1,.27,4.48,2.63,4.31,4.7s-8.84.27-8.53-1.62S95.9,100.9,97.26,101.28Z"/><path class="cls-5" d="M99.44,40.62c1,.27,4.49,2.63,4.32,4.71s-8.84.26-8.53-1.62S98.09,40.25,99.44,40.62Z"/><path class="cls-5" d="M75.22,15.48c.25,1-.1,5.2-2,6.06S68.67,14,70.47,13.31,74.89,14.11,75.22,15.48Z"/><g class="cls-7"><path class="cls-8" d="M88.85,30.84a6.62,6.62,0,0,0,.1-3,1.17,1.17,0,0,0-.17-.45.92.92,0,0,0-.84-.32,1.92,1.92,0,0,0-1.63,1.39,2.35,2.35,0,0,0,.51,2.14,1.59,1.59,0,0,0,1.06.61.9.9,0,0,0,1-.64.19.19,0,0,0-.32.06Z"/><path class="cls-8" d="M103.46,36.55a1.68,1.68,0,0,0-.52-1.56,1.79,1.79,0,0,0-1.19,1.14,1.08,1.08,0,0,0,.74,1.33c.57.1,1.13-.61.81-1.08Z"/><path class="cls-8" d="M101.77,31.4a2.32,2.32,0,0,0-.24-.53l0-.05a.08.08,0,0,0-.07,0c-.18.1-.2.41-.4.42a.2.2,0,0,0-.11,0c-.05,0,0,.11,0,.15a.53.53,0,0,0,.81-.09l0,.08Z"/><path class="cls-8" d="M97.71,26.55a3.75,3.75,0,0,0-.45-1s-.05-.07-.1-.09a.16.16,0,0,0-.13,0c-.33.18-.38.77-.75.79-.07,0-.15,0-.2,0s0,.21,0,.29a1,1,0,0,0,1.52-.18l0,.16Z"/><path class="cls-8" d="M107.58,24.13a3.68,3.68,0,0,0-.45-1,.21.21,0,0,0-.1-.09.15.15,0,0,0-.13,0c-.33.19-.38.78-.76.8a.35.35,0,0,0-.2,0c-.09.07,0,.21,0,.3a1,1,0,0,0,1.52-.19l0,.17Z"/><path class="cls-8" d="M102.88,28.13a.9.9,0,0,0-.23-.74.88.88,0,0,0-.25.26.32.32,0,0,0,0,.34c.1.12.3.09.46.05l-.07.12Z"/><path class="cls-8" d="M101.11,27.36a.37.37,0,0,0-.11-.19.36.36,0,0,0-.21,0,2.86,2.86,0,0,1-.58-.06c.2.26.41.51.62.77l0,.06c0,.09-.08.16-.1.25s.08.24.2.31C101.8,28.91,101.23,27.75,101.11,27.36Z"/><path class="cls-8" d="M91.74,23.86a.3.3,0,0,0-.11-.19.31.31,0,0,0-.21-.05,3.92,3.92,0,0,1-.59-.05l.63.76a.43.43,0,0,1,0,.07c0,.08-.08.15-.1.24s.08.25.2.31C92.43,25.4,91.86,24.25,91.74,23.86Z"/><path class="cls-8" d="M103.81,21.6l-.17-.23a.46.46,0,0,0-.16.51c.08.18.37.23.46.06s.11-.29.22-.22Z"/><path class="cls-8" d="M89.4,21.39a.4.4,0,1,1-.6-.36.43.43,0,0,1,.6.32Z"/><path class="cls-8" d="M92.83,24.23c.17.13.36.35.25.53s-.37.14-.56.08-.18-.07-.2-.16.39-.25.39-.46c.05,0,.12.06.07.1Z"/><path class="cls-8" d="M106.54,39.38a1,1,0,0,0-.5-.76c-.29-.13-.71,0-.72.36a.4.4,0,0,0,.08.26l.12.11a.87.87,0,0,0,.59.21.42.42,0,0,0,.38-.44Z"/><path class="cls-8" d="M113.16,43a.44.44,0,0,0-.25.11,1,1,0,0,0-.11.26c-.09.2-.33.28-.47.45s-.13.73,0,1.09c0,.08.07.18.16.2a.39.39,0,0,0,.18,0c.43-.17.7.24,1.1.19a1.23,1.23,0,0,0,.83-.71A1.25,1.25,0,0,0,113.16,43Z"/><path class="cls-8" d="M103.05,31.35a.45.45,0,0,1,.12.21.65.65,0,0,1-.5-.32c-.07-.09-.15-.22-.09-.32s.13-.09.2-.14.18-.32.34-.31a.2.2,0,0,1,.16.2.61.61,0,0,1-.08.26c-.08.18-.16.36-.25.54Z"/><path class="cls-8" d="M100.83,33.58c0-.17-.28-.19-.37-.06a.6.6,0,0,0,0,.49.58.58,0,0,0,.5-.42Z"/><path class="cls-8" d="M100.33,31.14a.54.54,0,0,0-.09-.22.22.22,0,0,0-.22-.09c-.13,0-.14.22-.24.32s-.27.1-.33.22a.23.23,0,0,0,.19.29.54.54,0,0,0,.38-.1.75.75,0,0,0,.27-.23.26.26,0,0,0-.05-.32Z"/><path class="cls-8" d="M100,30.11a.16.16,0,0,1-.18.12.28.28,0,0,1-.18-.14.28.28,0,0,1,0-.13.2.2,0,0,1,.2-.2A.22.22,0,0,1,100,30a.24.24,0,0,1-.21.2Z"/><path class="cls-8" d="M88.88,32.28a.16.16,0,0,1-.18.11.28.28,0,0,1-.18-.14.28.28,0,0,1,0-.13.19.19,0,0,1,.2-.19.21.21,0,0,1,.19.22.23.23,0,0,1-.21.2Z"/><path class="cls-8" d="M101,29.72a.23.23,0,0,0,.12-.38.45.45,0,0,0-.23.11.18.18,0,0,0,0,.24.13.13,0,0,0,.21,0Z"/><path class="cls-8" d="M89.7,17.56a.23.23,0,0,0,.11-.38.43.43,0,0,0-.23.12.21.21,0,0,0,0,.24.14.14,0,0,0,.22,0Z"/><path class="cls-8" d="M86.19,25.37a.66.66,0,0,0,0-.58l-.43.25a.42.42,0,0,0-.18.14.27.27,0,0,0,.17.36.35.35,0,0,0,.39-.16Z"/><path class="cls-8" d="M90.75,27.05c.16.25.33.49.5.74-.08.13-.28,0-.39-.06a.89.89,0,0,1-.27-.37A.28.28,0,0,1,90.8,27Z"/><path class="cls-8" d="M111.47,34.3a.31.31,0,0,0-.15-.51.48.48,0,0,0-.52.31.36.36,0,0,0,0,.27.31.31,0,0,0,.37.14,1,1,0,0,0,.38-.21Z"/><path class="cls-8" d="M91.94,23.32a.49.49,0,0,0,.11-.56.6.6,0,0,0-.38.17.42.42,0,0,0-.08.53c.13.15.44.08.43-.12Z"/><path class="cls-8" d="M91.37,25.32a.32.32,0,0,1-.24.29l-.26-.38a.35.35,0,0,1,.54,0Z"/><path class="cls-8" d="M107.9,36.48l-.42.57a.44.44,0,0,0-.09.18.34.34,0,0,0,0,.2c.1.24.25.51.51.5s.38-.35.49-.6c.23-.47,1.41-1.22,1-1.82S108.16,36.13,107.9,36.48Z"/><path class="cls-8" d="M110.24,33.24l.14.12a1,1,0,0,1-.4.12.34.34,0,0,1-.33-.22c0-.13.1-.29.24-.25a.81.81,0,0,1,.34.24Z"/><path class="cls-8" d="M99.18,32.32a.3.3,0,0,1-.53.13c-.05-.06-.06-.17,0-.2a.12.12,0,0,1,.1,0l.44,0,0,.07Z"/><path class="cls-8" d="M97,33c-.13,0-.27.06-.37.17s-.21.24-.35.22a.17.17,0,0,1-.1-.06c0-.09.07-.17.14-.26a1.12,1.12,0,0,0,.09-.22.49.49,0,0,1,.47-.28.27.27,0,0,1,.12.26.27.27,0,0,1-.19.23Z"/><path class="cls-8" d="M96.6,31.58l-.06-.15a.22.22,0,0,0-.21.15.17.17,0,0,0,.14.2.15.15,0,0,0,.15-.18Z"/><path class="cls-8" d="M92.71,31.27l-.06-.16a.22.22,0,0,0-.21.15.17.17,0,0,0,.14.2.15.15,0,0,0,.15-.18Z"/><path class="cls-8" d="M102,29.18c0,.11.13.17.24.14a2,2,0,0,0,.28-.16.4.4,0,0,1,.32,0,.18.18,0,0,1,.12.15.28.28,0,0,1,0,.12,1.15,1.15,0,0,1-.43.47.58.58,0,0,1-.61,0,.45.45,0,0,1-.14-.41.46.46,0,0,1,.29-.32Z"/><path class="cls-8" d="M87.48,11.54c0,.11.13.17.24.14s.18-.12.28-.16a.42.42,0,0,1,.33,0,.19.19,0,0,1,.11.15.28.28,0,0,1,0,.12,1.19,1.19,0,0,1-.43.46.54.54,0,0,1-.61,0,.42.42,0,0,1,.15-.72Z"/><path class="cls-8" d="M103.15,26.5a.27.27,0,0,0-.15-.33.38.38,0,0,0-.38.08c-.05,0-.09.11-.05.16a.16.16,0,0,0,.1.05l.49.09Z"/><path class="cls-8" d="M87.38,17.06a1.34,1.34,0,0,0,.81-.61.21.21,0,0,0,0-.17c0-.13-.23-.1-.36-.1s-.42-.2-.65-.21a.8.8,0,0,0-.5.23c-.21.16-.44.44-.29.66a.43.43,0,0,0,.36.17,2.37,2.37,0,0,0,.88,0Z"/><path class="cls-8" d="M97.22,21c.21,0,.3-.25.31-.47a.44.44,0,0,0-.09-.37c-.14-.11-.34,0-.49.09l-.39.26a.22.22,0,0,0-.13.15.2.2,0,0,0,.07.16,2.1,2.1,0,0,0,.73.56Z"/><path class="cls-8" d="M94.91,27.44c1.83.49,2.2-1.7.78-2.47S93.32,27,94.91,27.44Z"/><path class="cls-8" d="M103.15,34a.45.45,0,0,1-.7,0,1.05,1.05,0,0,1,.49-.4.38.38,0,0,1,.5.25l-.21.31Z"/><path class="cls-8" d="M98.08,37.47l-.18-.25a2.42,2.42,0,0,1-.94.52,2.38,2.38,0,0,0-.51.18.5.5,0,0,0-.29.42c0,.34.42.51.75.49a1.47,1.47,0,0,0,1.1-.56,1,1,0,0,0,0-1.19l-.35.23Z"/><path class="cls-8" d="M96.08,35.17c.08-.11,0-.17-.16-.13a1.5,1.5,0,0,0-.42.24l-.91.64c-.17.12-.37.28-.4.4s.1.14.24.1a2,2,0,0,0,.47-.23c.52-.31,1.11-.74,1.23-1.11l-.3.07Z"/><path class="cls-8" d="M95.09,33.37c0,.06-.06.11-.13.1a.24.24,0,0,1-.15-.09.38.38,0,0,1-.09-.13.23.23,0,0,1,.12-.25.26.26,0,0,1,.28,0,.16.16,0,0,1,.08.12.1.1,0,0,1-.07.11Z"/><path class="cls-8" d="M98.68,24.32a4,4,0,0,0,.52-.65.24.24,0,0,0-.19-.1.74.74,0,0,0-.8.73.32.32,0,0,0,.06.17.21.21,0,0,0,.23,0,.55.55,0,0,0,.17-.17Z"/><path class="cls-8" d="M99.84,28.67l-.07-.15a.34.34,0,0,0-.22.14c0,.08,0,.21.1.19s.06,0,.08-.05l.24-.21Z"/><path class="cls-8" d="M86.89,22.15a1.2,1.2,0,0,0-.08-.42.36.36,0,0,0-.34-.21.31.31,0,0,0-.18.09.42.42,0,0,0,0,.58.43.43,0,0,0,.58-.05Z"/><path class="cls-8" d="M91.83,16.75a.29.29,0,0,1-.18.46.72.72,0,0,1-.24-.22.48.48,0,0,1,.31-.19Z"/><path class="cls-8" d="M93.55,19.92c.07-.1-.14-.2-.22-.1s0,.25.09.33a.26.26,0,0,0,.13-.29Z"/><path class="cls-8" d="M104.08,37.82l-.17-.23a.44.44,0,0,0-.18.12.26.26,0,0,0,.33.18Z"/><path class="cls-8" d="M128.71,35.87l-.17-.23a.46.46,0,0,0-.18.13.28.28,0,0,0,.33.18Z"/><path class="cls-8" d="M116.15,33.87a1,1,0,0,1,.35.91.26.26,0,0,1,0,.12.24.24,0,0,1-.19,0c-.37-.07-.81-.22-.87-.59a.48.48,0,0,1,.63-.5l.08.3Z"/><path class="cls-8" d="M110.49,64.21a1.7,1.7,0,0,0-.53-1.56,1.77,1.77,0,0,0-1.18,1.14,1.08,1.08,0,0,0,.74,1.34c.56.1,1.12-.61.81-1.09Z"/><path class="cls-8" d="M108.79,59.06a1.93,1.93,0,0,0-.24-.53.07.07,0,0,0,0,0,.09.09,0,0,0-.07,0c-.18.1-.2.41-.4.42,0,0-.08,0-.11,0s0,.12,0,.16a.52.52,0,0,0,.8-.1l0,.09Z"/><path class="cls-8" d="M114.6,51.8a3.55,3.55,0,0,0-.45-1,.22.22,0,0,0-.09-.1.17.17,0,0,0-.14,0c-.33.18-.37.77-.75.79a.33.33,0,0,0-.2,0c-.09.06,0,.21,0,.29a1,1,0,0,0,1.52-.18l0,.16Z"/><path class="cls-8" d="M109.9,55.79a.86.86,0,0,0-.23-.73.75.75,0,0,0-.24.26.29.29,0,0,0,0,.33c.11.13.3.1.46.06l-.07.12Z"/><path class="cls-8" d="M108.13,55a.32.32,0,0,0-.1-.19.38.38,0,0,0-.21,0,2.88,2.88,0,0,1-.59-.06l.62.76a.16.16,0,0,1,0,.07c0,.09-.07.16-.1.25s.08.24.2.3C108.82,56.58,108.25,55.42,108.13,55Z"/><path class="cls-8" d="M110.84,49.27l-.17-.24a.46.46,0,0,0-.16.52.27.27,0,0,0,.46.06c.06-.1.11-.29.21-.23Z"/><path class="cls-8" d="M113.57,67.05a1,1,0,0,0-.51-.76.51.51,0,0,0-.72.36.38.38,0,0,0,.09.25.46.46,0,0,0,.12.12.86.86,0,0,0,.59.2.4.4,0,0,0,.37-.43Z"/><path class="cls-8" d="M110.08,59a.36.36,0,0,1,.11.21.67.67,0,0,1-.5-.33c-.07-.09-.14-.21-.08-.31s.13-.09.19-.14.19-.33.35-.31a.2.2,0,0,1,.15.2.48.48,0,0,1-.07.26c-.09.18-.17.36-.25.54Z"/><path class="cls-8" d="M108,57.39a.24.24,0,0,0,.11-.39.37.37,0,0,0-.22.12.2.2,0,0,0,0,.24.14.14,0,0,0,.22,0Z"/><path class="cls-8" d="M118.5,62a.32.32,0,0,0-.16-.51.46.46,0,0,0-.51.3.34.34,0,0,0,0,.28.35.35,0,0,0,.38.14.94.94,0,0,0,.37-.22Z"/><path class="cls-8" d="M114.92,64.14l-.42.58a.38.38,0,0,0-.09.18.51.51,0,0,0,0,.2c.1.23.26.51.51.49s.38-.35.5-.6c.22-.46,1.41-1.21,1-1.81S115.18,63.8,114.92,64.14Z"/><path class="cls-8" d="M117.27,60.91l.13.12a1,1,0,0,1-.4.12.33.33,0,0,1-.32-.22c0-.13.1-.3.23-.25a.73.73,0,0,1,.34.24Z"/><path class="cls-8" d="M109.06,56.85c0,.11.14.17.24.14s.18-.12.28-.16a.42.42,0,0,1,.33,0A.17.17,0,0,1,110,57s0,.08,0,.12a1.12,1.12,0,0,1-.43.46.54.54,0,0,1-.6,0,.42.42,0,0,1-.14-.4.43.43,0,0,1,.28-.32Z"/><path class="cls-8" d="M110.17,54.17a.25.25,0,0,0-.15-.33.38.38,0,0,0-.38.08s-.08.1,0,.15.07,0,.11.06l.49.09Z"/><path class="cls-8" d="M110.18,61.65a.44.44,0,0,1-.7,0,1.12,1.12,0,0,1,.48-.41c.2-.06.48,0,.5.26l-.21.31Z"/><path class="cls-8" d="M111.11,65.49l-.18-.24a.46.46,0,0,0-.18.13.27.27,0,0,0,.34.18Z"/><path class="cls-8" d="M123.18,61.53a1,1,0,0,1,.34.92.16.16,0,0,1,0,.11s-.12,0-.18,0c-.37-.07-.82-.21-.88-.58a.49.49,0,0,1,.63-.51l.09.31Z"/><path class="cls-8" d="M103.76,51.84a1,1,0,0,1,.34.91.22.22,0,0,1,0,.11.17.17,0,0,1-.18,0c-.37-.07-.82-.21-.88-.58a.49.49,0,0,1,.63-.51l.08.31Z"/></g><g class="cls-9"><path class="cls-10" d="M31.17,10.75l-2.32-1c.35-.23.69-.44,1-.64l1.68.73,1.22.54A193.92,193.92,0,0,0,87.4,25.24c2.06.25,4.13.47,6.2.68,5,.52,10.18,1.06,15.2,2.07a64.36,64.36,0,0,1,6.44,1.63c.26.43.52.86.77,1.3a64.3,64.3,0,0,0-7.41-2c-5-1-10.12-1.54-15.1-2-2.08-.22-4.15-.43-6.22-.68a194.92,194.92,0,0,1-54.89-15Z"/><path class="cls-10" d="M122.35,46.13c-4.93-.33-9.68-2-14.29-3.69l-2.76-1a99.55,99.55,0,0,0-35.95-5.94c-2.48.09-5,.29-7.44.48a105.19,105.19,0,0,1-11.54.51A54.28,54.28,0,0,1,18.51,25,32.15,32.15,0,0,1,15,21.76c.21-.26.43-.52.66-.77a30.71,30.71,0,0,0,3.49,3.18A53.28,53.28,0,0,0,50.4,35.51,106,106,0,0,0,61.83,35c2.45-.2,5-.4,7.49-.48,11.52-.4,23.74,1.62,36.31,6l2.77,1c4.44,1.59,9,3.23,13.67,3.62C122.17,45.46,122.26,45.8,122.35,46.13Z"/></g><g class="cls-9"><path class="cls-10" d="M117.14,91.54c-.18.35-.37.7-.57,1-.67,0-1.34.1-2,.13-4.85.21-11.33-.52-14.71-5.21a22.16,22.16,0,0,1-1.74-3.12c-.91-1.89-1.77-3.67-3.43-4.63a6.8,6.8,0,0,0-4.07-.66C87.91,79.4,85.51,80.68,83,82a28.86,28.86,0,0,1-6.45,2.79c-3.44.85-7.1.4-10.34,0l-.37,0Q54.76,83.41,43.7,82a10,10,0,0,1-4.08-1.14,3.74,3.74,0,0,1-1.87-4,5.2,5.2,0,0,1,1.42-2.15,7,7,0,0,0,1-1.18,4.11,4.11,0,0,0-.84-4.68,8.47,8.47,0,0,0-4.85-2.24c-4.6-.78-9.34.27-13.92,1.28-4,.89-8.16,1.81-12.33,1.55a22.1,22.1,0,0,1-8-2.09c0-.38-.06-.77-.09-1.15a21.2,21.2,0,0,0,8.14,2.24c4,.26,8.1-.65,12.05-1.52,4.67-1,9.5-2.11,14.29-1.29A9.44,9.44,0,0,1,40,68.21a5.07,5.07,0,0,1,1,5.88,8.1,8.1,0,0,1-1.1,1.35,4.4,4.4,0,0,0-1.18,1.72A2.78,2.78,0,0,0,40.15,80a9.1,9.1,0,0,0,3.67,1q11.06,1.42,22.12,2.77l.36,0c3.3.41,6.72.83,10,0a28,28,0,0,0,6.22-2.7c2.51-1.34,5.11-2.72,8-3.05a7.54,7.54,0,0,1,4.68.79c1.93,1.11,2.9,3.11,3.84,5a19.8,19.8,0,0,0,1.64,3c3.12,4.34,9.26,5,13.85,4.8C115.39,91.67,116.27,91.61,117.14,91.54Z"/></g><g class="cls-9"><path class="cls-10" d="M81.38,121.44c-.35.12-.68.23-1,.33a28.39,28.39,0,0,1-2.51-4l-.58-1c-3.84-6.67-8.75-11.56-14.21-14.16-6.29-3-13.52-3.17-20.4-2.94-8.11.28-17.32,1.27-24.19,6.46l-.6-.79C24.94,100,34.35,99,42.62,98.69c7-.24,14.38,0,20.86,3,5.64,2.68,10.71,7.72,14.65,14.56l.58,1A26.17,26.17,0,0,0,81.38,121.44Z"/></g><g class="cls-9"><path class="cls-10" d="M110.6,23.08l-1.66-.33a102.17,102.17,0,0,0-21.78-2.08,6.62,6.62,0,0,1-2.58-.31c-1.81-.71-2.48-2.53-3.12-4.29a14.39,14.39,0,0,0-.95-2.22c-1.59-2.8-5-3.76-7.7-3.72A28.06,28.06,0,0,0,65,11.78l-1.26.39C56.66,14.31,51,15,45.83,14.19a21.54,21.54,0,0,1-13-6.76c.31-.16.61-.33.92-.48A20.47,20.47,0,0,0,46,13.2c5,.74,10.55.11,17.45-2l1.25-.39a28.81,28.81,0,0,1,8.13-1.7c3,0,6.78,1,8.58,4.22a16.59,16.59,0,0,1,1,2.37c.59,1.63,1.16,3.16,2.55,3.71a5.68,5.68,0,0,0,2.16.24,102.91,102.91,0,0,1,22,2.1l.45.09C109.94,22.26,110.28,22.67,110.6,23.08Z"/></g></g></g></g></svg>