<svg id="Laag_1" data-name="Laag 1" xmlns="http://www.w3.org/2000/svg" xmlns:xlink="http://www.w3.org/1999/xlink" viewBox="0 0 61.92 61.92"><defs><style>.cls-1{fill:url(#_ÂÁ_Ï_ÌÌ_È_ËÂÌÚ_245);}</style><radialGradient id="_ÂÁ_Ï_ÌÌ_È_ËÂÌÚ_245" cx="20.11" cy="31.01" r="60.5" gradientTransform="matrix(0.98, -0.21, 0.21, 0.98, 5.49, 34.18)" gradientUnits="userSpaceOnUse"><stop offset="0.59" stop-color="#de595b"/><stop offset="1" stop-color="#fe835c"/></radialGradient></defs><path class="cls-1" d="M61.4,25.25a30.88,30.88,0,0,1,.18,10.3,29.72,29.72,0,0,1-.85,3.9c0,.18-.1.37-.16.56A30.58,30.58,0,0,1,55,50.46a29.15,29.15,0,0,1-2.42,2.66,31,31,0,0,1-6.09,4.62h0c-.15.1-.3.18-.46.27A31,31,0,0,1,1.34,40c-.06-.18-.11-.37-.16-.55A30.69,30.69,0,0,1,.35,26.37c.06-.41.13-.83.21-1.24A31.49,31.49,0,0,1,2.41,19a27.6,27.6,0,0,1,1.32-2.74A4.92,4.92,0,0,1,4,15.79,30.37,30.37,0,0,1,9.21,8.94c.15-.15.29-.29.44-.42.4-.39.81-.76,1.23-1.12l.4-.33a31,31,0,0,1,38.47-.72c.21.16.42.32.62.49a32.67,32.67,0,0,1,2.94,2.69l.51.55a31.23,31.23,0,0,1,4.44,6.27l.24.47A30.62,30.62,0,0,1,60.88,23C61.08,23.74,61.26,24.49,61.4,25.25Z"/></svg>