<?xml version="1.0" encoding="UTF-8" standalone="no"?>
<svg
   xmlns:dc="http://purl.org/dc/elements/1.1/"
   xmlns:cc="http://creativecommons.org/ns#"
   xmlns:rdf="http://www.w3.org/1999/02/22-rdf-syntax-ns#"
   xmlns:svg="http://www.w3.org/2000/svg"
   xmlns="http://www.w3.org/2000/svg"
   xmlns:sodipodi="http://sodipodi.sourceforge.net/DTD/sodipodi-0.dtd"
   xmlns:inkscape="http://www.inkscape.org/namespaces/inkscape"
   width="309"
   height="735"
   viewBox="0 0 81.756763 194.46899"
   version="1.1"
   id="svg647"
   inkscape:version="1.0.2 (e86c8708, 2021-01-15)"
   sodipodi:docname="rocket.svg">
  <defs
     id="defs641" />
  <sodipodi:namedview
     id="base"
     pagecolor="#ffffff"
     bordercolor="#666666"
     borderopacity="1.0"
     inkscape:pageopacity="0.0"
     inkscape:pageshadow="2"
     inkscape:zoom="0.92225752"
     inkscape:cx="344.33668"
     inkscape:cy="525.77827"
     inkscape:document-units="mm"
     inkscape:current-layer="layer1"
     inkscape:document-rotation="0"
     showgrid="false"
     units="px"
     inkscape:window-width="2560"
     inkscape:window-height="1301"
     inkscape:window-x="1920"
     inkscape:window-y="25"
     inkscape:window-maximized="0" />
  <metadata
     id="metadata644">
    <rdf:RDF>
      <cc:Work
         rdf:about="">
        <dc:format>image/svg+xml</dc:format>
        <dc:type
           rdf:resource="http://purl.org/dc/dcmitype/StillImage" />
        <dc:title></dc:title>
      </cc:Work>
    </rdf:RDF>
  </metadata>
  <g
     inkscape:label="Laag 1"
     inkscape:groupmode="layer"
     id="layer1">
    <path
       d="m 66.84251,83.538778 12.22128,3.02084 V 109.98477 L 59.19252,98.984808"
       style="fill:#2b4e8d;fill-opacity:1;fill-rule:nonzero;stroke:none;stroke-width:0.0352778"
       id="path412" />
    <path
       d="M 14.760513,83.538778 2.5110129,86.559268 V 109.98477 L 22.397093,98.984808 14.760513,83.538778"
       style="fill:#2b4e8d;fill-opacity:1;fill-rule:nonzero;stroke:none;stroke-width:0.0352778"
       id="path414" />
    <path
       d="m 53.81478,115.48458 c 0,0 -8.15763,52.55472 -14.07548,52.55472 -5.91856,0 -12.288307,-52.55472 -12.288307,-52.55472 H 53.81478"
       style="fill:#f25b2b;fill-opacity:1;fill-rule:nonzero;stroke:none;stroke-width:0.0352778"
       id="path416" />
    <path
       d="m 54.17144,115.48458 c 4.98263,6.66009 -1.36384,31.46601 -4.09328,31.46601 -2.73156,0 -4.06118,-31.46601 -4.06118,-31.46601 h 8.15446"
       style="fill:#f25b2b;fill-opacity:1;fill-rule:nonzero;stroke:none;stroke-width:0.0352778"
       id="path418" />
    <path
       d="m 25.701213,115.48458 c -4.98193,6.66009 1.53388,31.46601 4.26473,31.46601 2.7305,0 4.462287,-31.46601 4.462287,-31.46601 h -8.727017"
       style="fill:#f25b2b;fill-opacity:1;fill-rule:nonzero;stroke:none;stroke-width:0.0352778"
       id="path420" />
    <path
       d="m 39.71072,191.87187 c -3.24132,0 -6.601527,-17.84664 -9.208557,-36.28633 0.4946,-3.02931 0.9398,-7.0164 1.33033,-11.30477 2.268357,12.24809 5.136797,23.75853 7.906807,23.75853 2.75555,0 5.99722,-11.39684 8.6741,-23.57473 0.37641,4.60904 0.81985,8.86107 1.33173,11.92777 -3.07163,18.15183 -6.84036,35.47953 -10.03441,35.47953"
       style="fill:#4d1a29;fill-opacity:1;fill-rule:nonzero;stroke:none;stroke-width:0.0352778"
       id="path422" />
    <path
       d="m 39.7393,168.0393 c -2.77001,0 -5.63845,-11.51044 -7.906807,-23.75853 0.14358,-1.58044 0.28046,-3.20463 0.40887,-4.83305 1.380417,-9.30734 2.186867,-23.96314 2.186867,-23.96314 h 11.58875 c 0,0 0.70802,16.75412 2.15194,25.81169 0.0783,1.06821 0.15946,2.1269 0.24448,3.1683 -2.67688,12.17789 -5.91855,23.57473 -8.6741,23.57473"
       style="fill:#c63923;fill-opacity:1;fill-rule:nonzero;stroke:none;stroke-width:0.0352778"
       id="path424" />
    <path
       d="M 48.16892,141.29627 C 46.725,132.2387 46.01698,115.48458 46.01698,115.48458 h 8.15446 v 0 h -7.34801 c 0,0 0.44415,13.48599 1.34549,25.81169"
       style="fill:#c63923;fill-opacity:1;fill-rule:nonzero;stroke:none;stroke-width:0.0352778"
       id="path426" />
    <path
       d="m 32.241363,139.44772 c 0.93098,-11.78737 1.453087,-23.96314 1.453087,-23.96314 h -7.905397 v 0 h 8.639177 c 0,0 -0.80645,14.6558 -2.186867,23.96314"
       style="fill:#c63923;fill-opacity:1;fill-rule:nonzero;stroke:none;stroke-width:0.0352778"
       id="path428" />
    <path
       d="m 51.4233,161.21975 c -0.62371,0 -1.18287,-1.85914 -1.67817,-4.82741 -0.51188,-3.0667 -0.95532,-7.31873 -1.33173,-11.92777 0.0614,-0.2794 0.12206,-0.55598 0.18274,-0.83609 0.43744,2.04294 0.93098,3.32211 1.48202,3.32211 2.72944,0 9.07591,-24.80592 4.09328,-31.46601 h 1.48554 0.40394 c 5.64515,9.68057 -1.54447,45.73517 -4.63762,45.73517"
       style="fill:#4d1a29;fill-opacity:1;fill-rule:nonzero;stroke:none;stroke-width:0.0352778"
       id="path430" />
    <path
       d="m 48.4134,144.46457 c -0.085,-1.0414 -0.16616,-2.10009 -0.24448,-3.1683 0.13582,0.85231 0.27835,1.63654 0.42722,2.33221 -0.0607,0.28011 -0.12136,0.55669 -0.18274,0.83609"
       style="fill:#c63923;fill-opacity:1;fill-rule:nonzero;stroke:none;stroke-width:0.0352778"
       id="path432" />
    <path
       d="m 50.07816,146.95059 c -0.55104,0 -1.04458,-1.27917 -1.48202,-3.32211 -0.14887,-0.69567 -0.2914,-1.4799 -0.42722,-2.33221 -0.90134,-12.3257 -1.34549,-25.81169 -1.34549,-25.81169 h 7.34801 c 4.98263,6.66009 -1.36384,31.46601 -4.09328,31.46601"
       style="fill:#c63923;fill-opacity:1;fill-rule:nonzero;stroke:none;stroke-width:0.0352778"
       id="path434" />
    <path
       d="m 28.638443,161.21975 c -3.09422,0 -10.47609,-36.0546 -4.83094,-45.73517 h 1.89371 c -4.98193,6.66009 1.53388,31.46601 4.26473,31.46601 0.59902,0 1.1497,-1.51377 1.645,-3.87773 0.073,0.40217 0.14711,0.80716 0.22155,1.20791 -0.39053,4.28837 -0.83573,8.27546 -1.33033,11.30477 -0.56091,3.43429 -1.18498,5.63421 -1.86372,5.63421"
       style="fill:#4d1a29;fill-opacity:1;fill-rule:nonzero;stroke:none;stroke-width:0.0352778"
       id="path436" />
    <path
       d="m 31.832493,144.28077 c -0.0744,-0.40075 -0.14852,-0.80574 -0.22155,-1.20791 0.22155,-1.05763 0.43216,-2.28671 0.63042,-3.62514 -0.12841,1.62842 -0.26529,3.25261 -0.40887,4.83305"
       style="fill:#c63923;fill-opacity:1;fill-rule:nonzero;stroke:none;stroke-width:0.0352778"
       id="path438" />
    <path
       d="m 29.965943,146.95059 c -2.73085,0 -9.24666,-24.80592 -4.26473,-31.46601 h 0.0878 7.905397 c 0,0 -0.522107,12.17577 -1.453087,23.96314 -0.19826,1.33843 -0.40887,2.56751 -0.63042,3.62514 -0.4953,2.36396 -1.04598,3.87773 -1.645,3.87773"
       style="fill:#c63923;fill-opacity:1;fill-rule:nonzero;stroke:none;stroke-width:0.0352778"
       id="path440" />
    <path
       d="m 51.53972,115.48458 c 0,0 -6.81849,37.8206 -11.76585,37.8206 -4.94736,0 -10.271827,-37.8206 -10.271827,-37.8206"
       style="fill:#f8a021;fill-opacity:1;fill-rule:nonzero;stroke:none;stroke-width:0.0352778"
       id="path442" />
    <path
       d="m 51.83817,115.48458 c 4.16454,4.79354 -1.14018,22.6441 -3.4223,22.6441 -2.28318,0 -3.39408,-22.6441 -3.39408,-22.6441"
       style="fill:#f8a021;fill-opacity:1;fill-rule:nonzero;stroke:none;stroke-width:0.0352778"
       id="path444" />
    <path
       d="m 28.039423,115.48458 c -4.16454,4.79354 1.282,22.6441 3.56482,22.6441 2.282827,0 3.730267,-22.6441 3.730267,-22.6441"
       style="fill:#f8a021;fill-opacity:1;fill-rule:nonzero;stroke:none;stroke-width:0.0352778"
       id="path446" />
    <path
       d="m 60.31683,113.6519 c 0.34007,1.0668 -0.29845,1.84467 -1.41888,1.84467 H 21.009973 c -1.12042,0 -1.75895,-0.77787 -1.41922,-1.84467 l 1.61607,-5.05672 c 0.33973,-1.06821 1.53459,-1.91805 2.65465,-1.91805 H 56.0461 c 1.12042,0 2.31493,0.84984 2.65465,1.91805 l 1.61608,5.05672"
       style="fill:#2b4e8d;fill-opacity:1;fill-rule:nonzero;stroke:none;stroke-width:0.0352778"
       id="path448" />
    <path
       d="m 62.83601,106.76285 c 0,0.8763 -1.06539,1.32539 -2.62537,1.32539 H 21.071363 c -1.55964,0 -3.03813,-0.44909 -3.03813,-1.32539 v -6.04873 c 0,-0.875242 1.47849,-1.798102 3.03813,-1.798102 H 60.21064 c 1.55998,0 2.62537,0.92286 2.62537,1.798102 v 6.04873"
       style="fill:#408fc8;fill-opacity:1;fill-rule:nonzero;stroke:none;stroke-width:0.0352778"
       id="path450" />
    <path
       d="m 50.7435,8.1286484 c -3.76309,-3.72781 -7.38117,-7.24534996 -10.12402,-7.24534996 -2.95134,0 -6.66221,3.53235996 -10.454917,7.26756996 3.429697,-0.09 7.028027,-0.13758 10.738197,-0.13758 3.38843,0 6.68232,0.0399 9.84074,0.11536"
       style="fill:#408fc8;fill-opacity:1;fill-rule:nonzero;stroke:none;stroke-width:0.0352778"
       id="path452" />
    <path
       d="m 11.408773,75.433008 c 0.13688,2.11878 0.30163,4.11621 0.49389,6.00181 7.58296,-0.71191 17.78141,-1.14865 29.000097,-1.14865 10.94352,0 20.91725,0.41522 28.43812,1.09714 0.19191,-1.88665 0.35666,-3.88373 0.49283,-6.00357 -7.5759,-0.70908 -17.74648,-1.14265 -28.93095,-1.14265 -11.464567,0 -21.863407,0.45614 -29.493987,1.19592"
       style="fill:#2b4e8d;fill-opacity:1;fill-rule:nonzero;stroke:none;stroke-width:0.0352778"
       id="path454" />
    <path
       d="m 11.902663,81.434818 c 0.0776,0.762 0.1584,1.43933 0.24412,2.16429 1.30987,10.98515 3.63432,18.139132 6.89787,22.019682 h 0.0176 l -0.0176,0.0166 c 0,-0.88688 9.65941,-3.60927 21.573767,-3.60927 11.91613,0 21.57518,2.85115 21.57518,3.73839 l -0.0176,-1.50178 0.0176,1.63936 c 3.25473,-4.07423 5.57672,-11.141072 6.88764,-22.079652 0.0921,-0.76765 0.1785,-1.59491 0.25964,-2.40313 -7.52087,-0.68192 -17.4946,-1.11548 -28.43812,-1.11548 -11.218687,0 -21.417137,0.4191 -29.000097,1.13101"
       style="fill:#408fc8;fill-opacity:1;fill-rule:nonzero;stroke:none;stroke-width:0.0352778"
       id="path456" />
    <path
       d="m 24.773763,14.380928 c -5.90021,8.02958 -11.17953,19.54389 -13.09864,32.73143 -0.49636,3.40642 -0.77294,6.92185 -0.77294,10.52019 0,6.72041 0.17039,12.61815 0.50659,17.80046 7.63058,-0.73978 18.02942,-1.19592 29.493987,-1.19592 11.18447,0 21.35505,0.43357 28.93095,1.14265 0.33267,-5.1689 0.50201,-11.05077 0.50201,-17.74719 0,-3.62127 -0.29034,-7.15822 -0.80822,-10.5844 -1.99354,-13.18013 -7.43408,-24.68386 -13.38545,-32.70285 -4.72969,-0.18274 -9.86684,-0.28293 -15.23929,-0.28293 -5.71112,0 -11.156597,0.1136 -16.128997,0.31856"
       style="fill:#408fc8;fill-opacity:1;fill-rule:nonzero;stroke:none;stroke-width:0.0352778"
       id="path458" />
    <path
       d="m 50.7435,8.1286484 c -3.15842,-0.0755 -6.45231,-0.11536 -9.84074,-0.11536 -3.71017,0 -7.3085,0.0476 -10.738197,0.13758 -0.12947,0.12771 -0.25965,0.25612 -0.38982,0.38453 -1.67605,1.6534696 -3.36233,3.6152696 -5.00098,5.8455296 4.9724,-0.20496 10.417877,-0.31856 16.128997,-0.31856 5.37245,0 10.5096,0.10019 15.23929,0.28293 -1.64394,-2.21439 -3.32598,-4.16349 -4.9851,-5.8074296 -0.13829,-0.13688 -0.27587,-0.2734 -0.41345,-0.40922"
       style="fill:#2b4e8d;fill-opacity:1;fill-rule:nonzero;stroke:none;stroke-width:0.0352778"
       id="path460" />
    <path
       d="m 45.40985,43.899608 c -1.41499,-0.89852 -3.0921,-1.42063 -4.89268,-1.42063 -5.05107,0 -9.146107,4.09504 -9.146107,9.14576 0,3.4417 1.90182,6.43714 4.710637,7.99853 9.80122,-2.01471 10.14024,-10.45633 9.32815,-15.72366"
       style="fill:#1a1d28;fill-opacity:1;fill-rule:nonzero;stroke:none;stroke-width:0.0352778"
       id="path462" />
    <path
       d="m 45.4102,43.899608 c 0.81174,5.26733 0.47272,13.70895 -9.3285,15.72366 1.31374,0.73025 2.8254,1.14724 4.43547,1.14724 5.05143,0 9.14612,-4.09434 9.14612,-9.14577 0,-3.25049 -1.69757,-6.10341 -4.25309,-7.72513"
       style="fill:#100f0d;fill-opacity:1;fill-rule:nonzero;stroke:none;stroke-width:0.0352778"
       id="path464" />
    <path
       d="m 40.51717,44.027318 c -4.18923,0 -7.597767,3.40818 -7.597767,7.59742 0,4.18959 3.408537,7.59778 7.597767,7.59778 4.18924,0 7.59813,-3.40819 7.59813,-7.59778 0,-4.18924 -3.40889,-7.59742 -7.59813,-7.59742 m 0,18.29188 c -5.89668,0 -10.694097,-4.79743 -10.694097,-10.69446 0,-5.89703 4.797417,-10.69375 10.694097,-10.69375 5.89668,0 10.69446,4.79672 10.69446,10.69375 0,5.89703 -4.79778,10.69446 -10.69446,10.69446"
       style="fill:#2b4e8d;fill-opacity:1;fill-rule:nonzero;stroke:none;stroke-width:0.0352778"
       id="path466" />
    <path
       d="m 43.54612,25.658178 c -0.87594,-0.55633 -1.91452,-0.87948 -3.02895,-0.87948 -3.12667,0 -5.66138,2.53436 -5.66138,5.66138 0,2.13043 1.17687,3.98498 2.91536,4.95088 6.06778,-1.24671 6.27768,-6.47206 5.77497,-9.73278"
       style="fill:#1a1d28;fill-opacity:1;fill-rule:nonzero;stroke:none;stroke-width:0.0352778"
       id="path468" />
    <path
       d="m 43.54612,25.658178 c 0.50271,3.26072 0.29281,8.48607 -5.77497,9.73278 0.81386,0.45262 1.74943,0.71156 2.74602,0.71156 3.12703,0 5.66173,-2.53506 5.66173,-5.66244 0,-2.01224 -1.05092,-3.7779 -2.63278,-4.7819"
       style="fill:#100f0d;fill-opacity:1;fill-rule:nonzero;stroke:none;stroke-width:0.0352778"
       id="path470" />
    <path
       d="m 40.51717,25.736848 c -2.59327,0 -4.70323,2.10996 -4.70323,4.70323 0,2.59327 2.10996,4.70359 4.70323,4.70359 2.59363,0 4.70324,-2.11032 4.70324,-4.70359 0,-2.59327 -2.10961,-4.70323 -4.70324,-4.70323 m 0,11.32346 c -3.65019,0 -6.61987,-2.96933 -6.61987,-6.62023 0,-3.64984 2.96968,-6.62023 6.61987,-6.62023 3.65055,0 6.62023,2.97039 6.62023,6.62023 0,3.6509 -2.96968,6.62023 -6.62023,6.62023"
       style="fill:#2b4e8d;fill-opacity:1;fill-rule:nonzero;stroke:none;stroke-width:0.0352778"
       id="path472" />
    <path
       d="m 60.58106,105.29988 c 0,0.89959 -0.72955,1.62948 -1.62948,1.62948 -0.89994,0 -1.62948,-0.72989 -1.62948,-1.62948 0,-0.89993 0.72954,-1.62948 1.62948,-1.62948 0.89993,0 1.62948,0.72955 1.62948,1.62948"
       style="fill:#2b4e8d;fill-opacity:1;fill-rule:nonzero;stroke:none;stroke-width:0.0352778"
       id="path474" />
    <path
       d="m 53.24787,105.29988 c 0,0.89959 -0.72955,1.62948 -1.62949,1.62948 -0.89993,0 -1.62948,-0.72989 -1.62948,-1.62948 0,-0.89993 0.72955,-1.62948 1.62948,-1.62948 0.89994,0 1.62949,0.72955 1.62949,1.62948"
       style="fill:#2b4e8d;fill-opacity:1;fill-rule:nonzero;stroke:none;stroke-width:0.0352778"
       id="path476" />
    <path
       d="m 45.91503,105.29988 c 0,0.89959 -0.72955,1.62948 -1.62984,1.62948 -0.89993,0 -1.62948,-0.72989 -1.62948,-1.62948 0,-0.89993 0.72955,-1.62948 1.62948,-1.62948 0.90029,0 1.62984,0.72955 1.62984,1.62948"
       style="fill:#2b4e8d;fill-opacity:1;fill-rule:nonzero;stroke:none;stroke-width:0.0352778"
       id="path478" />
    <path
       d="m 38.58183,105.29988 c 0,0.89959 -0.72954,1.62948 -1.62983,1.62948 -0.89994,0 -1.62948,-0.72989 -1.62948,-1.62948 0,-0.89993 0.72954,-1.62948 1.62948,-1.62948 0.90029,0 1.62983,0.72955 1.62983,1.62948"
       style="fill:#2b4e8d;fill-opacity:1;fill-rule:nonzero;stroke:none;stroke-width:0.0352778"
       id="path480" />
    <path
       d="m 31.248643,105.29988 c 0,0.89959 -0.72954,1.62948 -1.62948,1.62948 -0.90029,0 -1.62983,-0.72989 -1.62983,-1.62948 0,-0.89993 0.72954,-1.62948 1.62983,-1.62948 0.89994,0 1.62948,0.72955 1.62948,1.62948"
       style="fill:#2b4e8d;fill-opacity:1;fill-rule:nonzero;stroke:none;stroke-width:0.0352778"
       id="path482" />
    <path
       d="m 23.915453,105.29988 c 0,0.89959 -0.7299,1.62948 -1.62948,1.62948 -0.89994,0 -1.62948,-0.72989 -1.62948,-1.62948 0,-0.89993 0.72954,-1.62948 1.62948,-1.62948 0.89958,0 1.62948,0.72955 1.62948,1.62948"
       style="fill:#2b4e8d;fill-opacity:1;fill-rule:nonzero;stroke:none;stroke-width:0.0352778"
       id="path484" />
    <path
       d="m 2.5110129,109.98477 v 0 l 6.53521,-3.61491 v 0 l -6.53521,3.61491 M 11.902663,81.434818 c 0.0134,-0.001 0.0268,-0.003 0.0399,-0.004 -0.0134,0.001 -0.0264,0.002 -0.0399,0.004 m 0.0737,-0.007 c 0.002,-3.6e-4 0.004,-3.6e-4 0.006,-7.1e-4 -0.002,3.5e-4 -0.004,3.5e-4 -0.006,7.1e-4 m 0.0423,-0.004 c 7.1e-4,-3.5e-4 0.002,-3.5e-4 0.002,-3.5e-4 -7e-4,0 -0.001,0 -0.002,3.5e-4 m 0.0744,-0.007 c 0.006,-7.1e-4 0.0123,-0.001 0.018,-0.002 -0.006,7e-4 -0.012,0.001 -0.018,0.002 m 0.0399,-0.004 c 0.008,-7.1e-4 0.0162,-0.001 0.024,-0.002 -0.008,7e-4 -0.0159,10e-4 -0.024,0.002 m 0.0409,-0.004 c 0.008,-7.1e-4 0.0155,-10e-4 0.0236,-0.002 -0.008,7e-4 -0.0155,0.001 -0.0236,0.002 m 0.0586,-0.006 c 0.009,-7.1e-4 0.018,-10e-4 0.0272,-0.002 -0.009,0.001 -0.018,0.002 -0.0272,0.002 m 0.0349,-0.003 c 0.0106,-7.1e-4 0.0208,-0.002 0.0318,-0.003 -0.0109,0.001 -0.0212,0.002 -0.0318,0.003 m 0.0575,-0.005 c 0.005,-3.5e-4 0.0109,-7.1e-4 0.0162,-0.001 -0.006,7e-4 -0.0106,0.001 -0.0162,0.001 m 0.0878,-0.008 c 0.003,-3.6e-4 0.006,-7.1e-4 0.009,-7.1e-4 -0.003,0 -0.006,3.5e-4 -0.009,7.1e-4"
       style="fill:#191b2f;fill-opacity:1;fill-rule:nonzero;stroke:none;stroke-width:0.0352778"
       id="path486" />
    <path
       d="M 2.5110129,109.98477 V 86.559268 l 9.7049201,-2.39289 c 0.66428,5.35869 1.57515,9.7857 2.7245,13.3484 -1.93569,3.326342 -3.90455,6.311552 -5.8942101,8.855082 l -6.53521,3.61491"
       style="fill:#27467d;fill-opacity:1;fill-rule:nonzero;stroke:none;stroke-width:0.0352778"
       id="path488" />
    <path
       d="m 14.940433,97.514778 c -1.14935,-3.5627 -2.06022,-7.98971 -2.7245,-13.3484 l 10e-4,-3.6e-4 c -0.0236,-0.18873 -0.0473,-0.37571 -0.0702,-0.56691 v 0 c -0.0857,-0.72496 -0.16651,-1.40229 -0.24412,-2.16429 v 0 c 0.0134,-0.001 0.0265,-0.003 0.0399,-0.004 0.0113,-0.001 0.0226,-0.002 0.0339,-0.003 0.002,-3.6e-4 0.004,-3.6e-4 0.006,-7.1e-4 0.0123,-0.001 0.0243,-0.002 0.0367,-0.003 10e-4,-3.5e-4 0.002,-3.5e-4 0.002,-3.5e-4 0.024,-0.002 0.048,-0.005 0.072,-0.007 0.006,-7.1e-4 0.012,-0.001 0.018,-0.002 0.005,-3.5e-4 0.009,-7.1e-4 0.013,-0.001 0.003,-3.5e-4 0.006,-7.1e-4 0.009,-0.001 0.008,-7.1e-4 0.0159,-10e-4 0.024,-0.002 0.006,-3.5e-4 0.0113,-0.001 0.0169,-0.001 0.008,-7.1e-4 0.0152,-10e-4 0.0236,-0.002 0.0116,-0.001 0.0233,-0.002 0.0349,-0.004 0.009,-7.1e-4 0.018,-10e-4 0.0272,-0.002 0.002,0 0.005,-3.5e-4 0.008,-7.1e-4 0.0106,-7e-4 0.0208,-0.002 0.0318,-0.003 0.008,-7e-4 0.0173,-0.001 0.0258,-0.002 0.006,-3.5e-4 0.0106,-7e-4 0.0162,-10e-4 0.024,-0.002 0.0476,-0.004 0.0716,-0.006 0.003,-3.5e-4 0.006,-7e-4 0.009,-7e-4 3.2265,-0.29281 6.90774,-0.5334 10.9227,-0.71297 -2.70051,6.1528 -5.51533,11.87662 -8.40387,16.84056"
       style="fill:#387eb4;fill-opacity:1;fill-rule:nonzero;stroke:none;stroke-width:0.0352778"
       id="path490" />
    <path
       d="m 11.902663,81.434818 c -0.19226,-1.8856 -0.35701,-3.88303 -0.49389,-6.00181 -0.3362,-5.18231 -0.50659,-11.08005 -0.50659,-17.80046 v 0 c 0,6.72041 0.17039,12.61815 0.50659,17.80046 v 0 c 0.13688,2.11878 0.30163,4.11621 0.49389,6.00181 3.35033,-0.31468 7.21078,-0.57538 11.44482,-0.76871 -3.6e-4,3.6e-4 -3.6e-4,3.6e-4 -3.6e-4,3.6e-4 -4.13632,0.18873 -7.91845,0.44203 -11.2148,0.74718 -0.007,3.5e-4 -0.0141,0.001 -0.0212,0.002 -0.006,7.1e-4 -0.012,10e-4 -0.018,0.002 -0.0243,0.002 -0.0476,0.004 -0.072,0.007 -7e-4,0 -0.002,0 -0.002,3.5e-4 -0.012,0.001 -0.0243,0.002 -0.0367,0.003 -0.002,3.6e-4 -0.004,3.6e-4 -0.006,7.1e-4 -0.0113,0.001 -0.0226,0.002 -0.0339,0.003 -0.013,0.001 -0.0264,0.002 -0.0399,0.004 v 0 0 0 0 M 41.18565,0.93030844 c -7.1e-4,0 -0.001,0 -0.001,0 3.5e-4,0 7e-4,0 0.001,0 m -0.0134,-0.002 c -3.5e-4,0 -7e-4,0 -7e-4,0 0,0 3.5e-4,0 7e-4,0 m -0.0367,-0.006 c -0.001,0 -0.002,0 -0.003,-3.6e-4 7.1e-4,3.6e-4 0.002,3.6e-4 0.003,3.6e-4 m -0.0138,-0.002 c -7e-4,0 -0.002,-3.6e-4 -0.003,-3.6e-4 0.001,0 0.002,0 0.003,3.6e-4 m -0.0363,-0.005 c -0.001,-3.6e-4 -0.002,-3.6e-4 -0.004,-7.1e-4 0.001,0 0.002,3.5e-4 0.004,7.1e-4 m -0.0134,-0.002 c -0.002,0 -0.004,-3.6e-4 -0.005,-3.6e-4 0.002,0 0.004,3.6e-4 0.005,3.6e-4 m -0.0145,-0.002 c -10e-4,0 -0.003,-3.6e-4 -0.005,-7.1e-4 0.002,3.5e-4 0.004,7.1e-4 0.005,7.1e-4 m -0.0215,-0.002 c -0.002,-3.6e-4 -0.004,-7.1e-4 -0.005,-7.1e-4 0.002,0 0.004,3.5e-4 0.005,7.1e-4 m -0.0141,-0.002 c -0.002,-3.6e-4 -0.004,-3.6e-4 -0.006,-7.1e-4 0.002,3.5e-4 0.004,3.5e-4 0.006,7.1e-4 m -0.0141,-0.002 c -0.002,0 -0.005,-3.6e-4 -0.007,-7.1e-4 0.002,3.5e-4 0.004,3.5e-4 0.007,7.1e-4 m -0.0208,-0.002 c -0.002,-3.6e-4 -0.005,-7.1e-4 -0.007,-7.1e-4 0.002,0 0.005,3.5e-4 0.007,7.1e-4 m -0.0148,-0.002 c -0.002,0 -0.004,-3.6e-4 -0.006,-7.1e-4 0.002,3.5e-4 0.004,7.1e-4 0.006,7.1e-4 m -0.0141,-0.001 c -0.003,-3.6e-4 -0.006,-3.6e-4 -0.008,-7.1e-4 0.003,3.5e-4 0.005,3.5e-4 0.008,7.1e-4 m -0.0145,-0.001 c -0.005,-3.6e-4 -0.009,-7.1e-4 -0.0134,-0.001 0.005,3.5e-4 0.009,7e-4 0.0134,0.001 m -0.0201,-0.002 c -0.003,-3.6e-4 -0.006,-3.6e-4 -0.008,-7.1e-4 0.002,3.5e-4 0.005,3.5e-4 0.008,7.1e-4 m -0.0148,-0.001 c -0.003,0 -0.006,-3.6e-4 -0.008,-7.1e-4 0.003,3.5e-4 0.005,3.5e-4 0.008,7.1e-4 m -0.0148,-0.001 c -0.005,-3.6e-4 -0.009,-7.1e-4 -0.0138,-0.001 0.005,3.5e-4 0.009,7e-4 0.0138,0.001 m -0.0187,-0.001 c -0.003,-3.6e-4 -0.006,-7.1e-4 -0.01,-0.001 0.004,3.5e-4 0.007,7e-4 0.01,0.001 m -0.0159,-0.001 c -0.003,0 -0.006,-3.6e-4 -0.009,-7.1e-4 0.003,3.5e-4 0.006,7.1e-4 0.009,7.1e-4 m -0.0148,-0.001 c -0.004,-3.6e-4 -0.008,-3.6e-4 -0.0116,-7.1e-4 0.004,3.5e-4 0.008,3.5e-4 0.0116,7.1e-4 m -0.0176,-0.001 c -0.004,-3.6e-4 -0.007,-3.6e-4 -0.0109,-7.1e-4 0.004,3.5e-4 0.007,3.5e-4 0.0109,7.1e-4 m -0.0166,-0.001 c -0.003,0 -0.006,-3.6e-4 -0.01,-3.6e-4 0.003,0 0.006,3.6e-4 0.01,3.6e-4 m -0.0148,-7.1e-4 c -0.004,-3.5e-4 -0.008,-3.5e-4 -0.0116,-7.1e-4 0.004,3.6e-4 0.008,3.6e-4 0.0116,7.1e-4 m -0.0148,-7.1e-4 c -0.005,-3.5e-4 -0.01,-7e-4 -0.0141,-7e-4 0.005,0 0.009,3.5e-4 0.0141,7e-4 m -0.019,-0.001 c -0.004,0 -0.007,-3.5e-4 -0.0102,-3.5e-4 0.004,0 0.007,3.5e-4 0.0102,3.5e-4 m -0.0152,-7e-4 c -0.004,0 -0.007,0 -0.0109,-3.5e-4 0.004,3.5e-4 0.007,3.5e-4 0.0109,3.5e-4 m -0.0148,-3.5e-4 c -0.005,-3.6e-4 -0.01,-3.6e-4 -0.0145,-3.6e-4 0.005,0 0.01,0 0.0145,3.6e-4 m -0.0183,-7.1e-4 c -0.004,0 -0.007,0 -0.0109,-3.5e-4 0.004,3.5e-4 0.007,3.5e-4 0.0109,3.5e-4 m -0.0155,-3.5e-4 c -0.004,0 -0.007,0 -0.0109,-3.6e-4 0.004,3.6e-4 0.007,3.6e-4 0.0109,3.6e-4 m -0.0148,-3.6e-4 c -0.005,0 -0.01,0 -0.0145,-3.5e-4 0.005,3.5e-4 0.01,3.5e-4 0.0145,3.5e-4 m -0.0173,-3.5e-4 c -0.004,0 -0.008,0 -0.012,0 0.004,0 0.008,0 0.012,0 m -0.0166,0 c -0.004,0 -0.007,0 -0.0106,0 0.004,0 0.007,0 0.0106,0 m -0.0152,0 c -0.005,-3.5e-4 -0.01,-3.5e-4 -0.0145,-3.5e-4 0.005,0 0.01,0 0.0145,3.5e-4"
       style="fill:#191b2f;fill-opacity:1;fill-rule:nonzero;stroke:none;stroke-width:0.0352778"
       id="path492" />
    <path
       d="M 30.164563,8.1508684 C 33.95727,4.4156584 37.66814,0.88329844 40.61948,0.88329844 v 0 c 0.005,0 0.01,0 0.0145,3.5e-4 10e-4,0 0.003,0 0.005,0 0.004,0 0.007,0 0.0106,0 10e-4,0 0.003,0 0.005,0 0.004,0 0.008,0 0.012,0 10e-4,0 0.002,0 0.003,0 0.005,3.5e-4 0.01,3.5e-4 0.0145,3.5e-4 10e-4,0 0.002,0 0.004,0 0.004,3.5e-4 0.007,3.5e-4 0.0109,3.5e-4 10e-4,0 0.003,0 0.005,0 0.004,3.6e-4 0.007,3.6e-4 0.0109,3.6e-4 10e-4,0 0.003,3.5e-4 0.004,3.5e-4 0.005,0 0.01,0 0.0145,3.5e-4 0.001,0 0.002,0 0.004,0 0.004,3.5e-4 0.007,3.5e-4 0.0109,3.5e-4 10e-4,3.6e-4 0.004,3.6e-4 0.005,3.6e-4 0.004,0 0.007,3.5e-4 0.0102,3.5e-4 0.002,0 0.003,3.5e-4 0.005,3.5e-4 0.005,0 0.01,3.6e-4 0.0141,7.1e-4 10e-4,0 0.002,0 0.003,0 0.004,3.5e-4 0.007,3.5e-4 0.0116,7e-4 0.002,0 0.004,0 0.005,3.6e-4 0.003,0 0.006,3.5e-4 0.01,3.5e-4 0.002,3.5e-4 0.004,3.5e-4 0.006,3.5e-4 0.004,3.6e-4 0.007,3.6e-4 0.0109,7.1e-4 0.002,0 0.004,3.5e-4 0.006,3.5e-4 0.004,3.5e-4 0.008,3.5e-4 0.0116,7.1e-4 0.002,3.5e-4 0.004,3.5e-4 0.006,3.5e-4 0.003,3.5e-4 0.006,7e-4 0.009,7e-4 0.002,3.6e-4 0.004,3.6e-4 0.006,3.6e-4 0.004,3.5e-4 0.007,7e-4 0.01,0.001 0.002,0 0.003,0 0.005,3.5e-4 0.005,3.5e-4 0.009,7.1e-4 0.0138,0.001 0.002,0 0.004,3.5e-4 0.006,3.5e-4 0.003,3.6e-4 0.006,7.1e-4 0.008,7.1e-4 0.002,3.5e-4 0.005,3.5e-4 0.007,7e-4 0.002,3.6e-4 0.005,3.6e-4 0.008,7.1e-4 0.002,0 0.004,3.5e-4 0.007,7.1e-4 0.004,3.5e-4 0.009,7e-4 0.0134,0.001 0.002,3.5e-4 0.004,3.5e-4 0.006,7e-4 0.002,3.5e-4 0.005,3.5e-4 0.008,7.1e-4 0.002,3.5e-4 0.005,7e-4 0.008,7e-4 0.002,3.5e-4 0.004,7.1e-4 0.006,7.1e-4 0.003,3.5e-4 0.006,7e-4 0.008,0.001 0.002,0 0.005,3.5e-4 0.007,7e-4 0.005,3.6e-4 0.01,0.001 0.0141,0.001 0.002,3.6e-4 0.005,7.1e-4 0.007,7.1e-4 0.003,3.5e-4 0.006,7e-4 0.008,0.001 0.002,3.5e-4 0.004,3.5e-4 0.006,7e-4 0.003,3.6e-4 0.006,7.1e-4 0.009,0.001 0.002,0 0.004,3.6e-4 0.005,7.1e-4 0.006,7e-4 0.0113,0.001 0.0166,0.002 0.002,3.5e-4 0.004,7e-4 0.005,7e-4 0.003,3.6e-4 0.006,7.1e-4 0.009,0.001 0.002,0 0.004,3.6e-4 0.005,3.6e-4 0.003,7e-4 0.006,0.001 0.01,0.001 0.001,3.5e-4 0.002,3.5e-4 0.004,7e-4 0.0113,0.001 0.0222,0.003 0.0335,0.005 7.1e-4,0 0.002,3.6e-4 0.003,3.6e-4 0.004,3.5e-4 0.007,0.001 0.0109,0.001 7.1e-4,3.5e-4 0.002,3.5e-4 0.003,3.5e-4 0.012,0.002 0.024,0.004 0.036,0.006 0,0 3.5e-4,0 7e-4,0 0.004,7e-4 0.008,0.001 0.012,0.002 3.5e-4,0 7e-4,0 10e-4,0 1.9946,0.32066996 4.39208,2.24718996 6.94372,4.65348996 -0.20637,0.79022 -0.42368,1.61749 -0.65193,2.48038 -2.14277,-0.0335 -4.33811,-0.0508 -6.57472,-0.0508 -3.71017,0 -7.3085,0.0476 -10.738197,0.13758"
       style="fill:#387eb4;fill-opacity:1;fill-rule:nonzero;stroke:none;stroke-width:0.0352778"
       id="path494" />
    <path
       d="m 11.902663,81.434818 c -0.19226,-1.8856 -0.35701,-3.88303 -0.49389,-6.00181 4.12856,-0.40005 9.0678,-0.71755 14.54785,-0.92428 -0.8569,2.09091 -1.72685,4.14655 -2.6095,6.15774 -4.23368,0.19297 -8.09413,0.45367 -11.44446,0.76835"
       style="fill:#27467d;fill-opacity:1;fill-rule:nonzero;stroke:none;stroke-width:0.0352778"
       id="path496" />
    <path
       d="m 11.902663,81.434818 v 0 0 0 m 0.0399,-0.004 c 0.0113,-0.001 0.0226,-0.002 0.0339,-0.003 -0.0113,0.001 -0.0226,0.002 -0.0339,0.003 m 0.0395,-0.004 c 0.0123,-10e-4 0.0247,-0.002 0.0367,-0.003 -0.0123,0.001 -0.0243,0.002 -0.0367,0.003 m 0.0392,-0.004 c 0.0243,-0.002 0.0476,-0.005 0.072,-0.007 -0.024,0.002 -0.048,0.004 -0.072,0.007 m 0.09,-0.008 c 0.007,-7.1e-4 0.0141,-10e-4 0.0212,-0.002 -0.003,0 -0.006,3.5e-4 -0.008,7e-4 -0.004,3.6e-4 -0.008,7.1e-4 -0.013,0.001"
       style="fill:#387eb4;fill-opacity:1;fill-rule:nonzero;stroke:none;stroke-width:0.0352778"
       id="path498" />
    <path
       d="m 11.408773,75.433008 c -0.3362,-5.18231 -0.50659,-11.08005 -0.50659,-17.80046 0,-3.59834 0.27658,-7.11377 0.77294,-10.52019 1.91911,-13.18754 7.19843,-24.70185 13.09864,-32.73143 v 0 c 4.9724,-0.20496 10.417877,-0.31856 16.128997,-0.31856 1.67534,0 3.32775,0.01 4.95194,0.0289 -0.85901,3.13972 -1.81892,6.56731 -2.8702,10.20551 -0.7627,-0.30762 -1.59561,-0.47696 -2.46733,-0.47696 -3.65019,0 -6.61987,2.97039 -6.61987,6.62023 0,3.20181 2.28423,5.8794 5.30825,6.4897 -0.4438,1.43263 -0.89747,2.87938 -1.36137,4.33917 -4.607637,1.18992 -8.021107,5.38127 -8.021107,10.35579 0,2.50649 0.86677,4.81436 2.31634,6.63963 -1.95898,5.50757 -4.02767,10.98409 -6.18279,16.24436 -5.48005,0.20673 -10.41929,0.52423 -14.54785,0.92428 v 0"
       style="fill:#387eb4;fill-opacity:1;fill-rule:nonzero;stroke:none;stroke-width:0.0352778"
       id="path500" />
    <path
       d="m 24.773763,14.380928 c 1.63865,-2.23026 3.32493,-4.19206 5.00098,-5.8455296 0.13017,-0.12841 0.26035,-0.25682 0.38982,-0.38453 v 0 c 3.429697,-0.09 7.028027,-0.13758 10.738197,-0.13758 2.23661,0 4.43195,0.0173 6.57472,0.0508 -0.49107,1.85526 -1.03329,3.8738496 -1.62278,6.0272096 -1.62419,-0.0191 -3.2766,-0.0289 -4.95194,-0.0289 -5.71112,0 -11.156597,0.11359 -16.128997,0.31856"
       style="fill:#27467d;fill-opacity:1;fill-rule:nonzero;stroke:none;stroke-width:0.0352778"
       id="path502" />
    <path
       d="m 33.47114,54.467418 c -0.355597,-0.87841 -0.551737,-1.83797 -0.551737,-2.84268 0,-2.76084 1.480607,-5.18266 3.689347,-6.51298 -1.00612,3.0928 -2.05317,6.22194 -3.13761,9.35566"
       style="fill:#181b23;fill-opacity:1;fill-rule:nonzero;stroke:none;stroke-width:0.0352778"
       id="path504" />
    <path
       d="m 32.139413,58.264368 c -1.44957,-1.82527 -2.31634,-4.13314 -2.31634,-6.63963 0,-4.97452 3.41347,-9.16587 8.021107,-10.35579 -0.40429,1.27247 -0.81633,2.55481 -1.23543,3.84281 -2.20874,1.33032 -3.689347,3.75214 -3.689347,6.51298 0,1.00471 0.19614,1.96427 0.551737,2.84268 -0.437797,1.26612 -0.881937,2.53224 -1.331727,3.79695"
       style="fill:#27467d;fill-opacity:1;fill-rule:nonzero;stroke:none;stroke-width:0.0352778"
       id="path506" />
    <path
       d="m 39.24964,34.970098 c -1.97979,-0.55492 -3.4357,-2.37561 -3.4357,-4.53002 0,-2.59327 2.10996,-4.70323 4.70323,-4.70323 0.68721,0 1.34021,0.14816 1.92899,0.41381 -0.80327,2.75307 -1.65523,5.61022 -2.55305,8.54604 -0.20391,0.0974 -0.4184,0.18873 -0.64347,0.2734"
       style="fill:#181b23;fill-opacity:1;fill-rule:nonzero;stroke:none;stroke-width:0.0352778"
       id="path508" />
    <path
       d="m 39.77422,35.084748 c -0.17815,-0.0282 -0.35348,-0.0667 -0.52458,-0.11465 0.22507,-0.0847 0.43956,-0.17604 0.64347,-0.2734 -0.0392,0.12841 -0.0794,0.25929 -0.11889,0.38805"
       style="fill:#100f0d;fill-opacity:1;fill-rule:nonzero;stroke:none;stroke-width:0.0352778"
       id="path510" />
    <path
       d="m 39.20555,36.929778 c -3.02402,-0.6103 -5.30825,-3.28789 -5.30825,-6.4897 0,-3.64984 2.96968,-6.62023 6.61987,-6.62023 0.87172,0 1.70463,0.16934 2.46733,0.47696 -0.17674,0.61171 -0.35666,1.23084 -0.53834,1.85385 -0.58878,-0.26565 -1.24178,-0.41381 -1.92899,-0.41381 -2.59327,0 -4.70323,2.10996 -4.70323,4.70323 0,2.15441 1.45591,3.9751 3.4357,4.53002 v 0 c 0.1711,0.048 0.34643,0.0864 0.52458,0.11465 -0.18732,0.61101 -0.37747,1.22802 -0.56867,1.84503"
       style="fill:#27467d;fill-opacity:1;fill-rule:nonzero;stroke:none;stroke-width:0.0352778"
       id="path512" />
  </g>
</svg>
